<svg width="625" height="625" viewBox="0 0 625 625" fill="none" xmlns="http://www.w3.org/2000/svg">
<path d="M66.6625 279.787V339.337C66.6625 344.512 68.7182 349.476 72.3775 353.135C76.0368 356.794 80.9999 358.85 86.175 358.85H299.688C304.86 358.847 309.82 356.789 313.477 353.13C317.133 349.471 319.188 344.51 319.188 339.337V289.025L345.775 261.1L86.25 260.287C83.6823 260.277 81.1379 260.774 78.7627 261.75C76.3875 262.725 74.2281 264.16 72.4084 265.971C70.5888 267.783 69.1445 269.936 68.1585 272.307C67.1725 274.677 66.6641 277.22 66.6625 279.787Z" fill="#F5F5F5"/>
<path d="M287.713 296.362L93.975 295.462L93.9875 289.513L287.738 290.4L287.713 296.362Z" fill="#E0E0E0"/>
<path d="M287.713 315.95L93.975 315.063L93.9875 309.1L287.738 310L287.713 315.95Z" fill="#E0E0E0"/>
<path d="M211.067 328.712L211.038 334.662L287.699 335.037L287.728 329.087L211.067 328.712Z" fill="#E0E0E0"/>
<path d="M264.5 485.538V545.088C264.5 550.263 266.556 555.226 270.216 558.885C273.875 562.544 278.838 564.6 284.013 564.6H497.501C502.673 564.597 507.633 562.539 511.29 558.881C514.946 555.222 517.001 550.26 517.001 545.088V494.775L543.588 466.85L284.05 466.038C281.486 466.033 278.946 466.534 276.575 467.511C274.204 468.489 272.049 469.924 270.233 471.735C268.418 473.546 266.977 475.698 265.993 478.066C265.009 480.434 264.502 482.973 264.5 485.538Z" fill="#F5F5F5"/>
<path d="M486.487 500.563L292.738 499.675L292.75 493.712L486.5 494.612L486.487 500.563Z" fill="#E0E0E0"/>
<path d="M486.487 520.151L292.738 519.263L292.75 513.3L486.5 514.2L486.487 520.151Z" fill="#E0E0E0"/>
<path d="M409.824 532.9L409.795 538.85L486.456 539.225L486.485 533.275L409.824 532.9Z" fill="#E0E0E0"/>
<path d="M180.788 55.4875H306.712C309.696 55.4875 312.558 56.6728 314.667 58.7825C316.777 60.8923 317.962 63.7538 317.962 66.7375V128.325C317.962 131.309 316.777 134.17 314.667 136.28C312.558 138.39 309.696 139.575 306.712 139.575H199.862C196.879 139.575 194.017 138.39 191.908 136.28C189.798 134.17 188.612 131.309 188.612 128.325V63.275L180.788 55.4875Z" fill="#F5F5F5"/>
<path d="M253.75 115.362V154.862C253.75 158.294 252.387 161.584 249.961 164.011C247.535 166.437 244.244 167.8 240.813 167.8H99.2374C97.5347 167.805 95.8477 167.474 94.2731 166.826C92.6984 166.178 91.2669 165.226 90.0606 164.025C88.8542 162.823 87.8967 161.395 87.2429 159.823C86.589 158.251 86.2516 156.565 86.2499 154.862V121.487L68.6749 102.962L240.813 102.425C244.244 102.425 247.535 103.788 249.961 106.214C252.387 108.641 253.75 111.931 253.75 115.362Z" fill="#E0E0E0"/>
<path d="M107.175 126.35L235.675 125.762L235.663 121.812L107.163 122.412L107.175 126.35Z" fill="#F5F5F5"/>
<path d="M107.175 139.35L235.675 138.75L235.663 134.812L107.163 135.4L107.175 139.35Z" fill="#F5F5F5"/>
<path d="M157.287 148.587H106.438V152.537H157.287V148.587Z" fill="#F5F5F5"/>
<path d="M522.05 298.5V338C522.05 341.431 520.686 344.722 518.26 347.148C515.834 349.574 512.543 350.937 509.112 350.937H367.5C364.068 350.937 360.776 349.575 358.347 347.149C355.919 344.723 354.553 341.432 354.55 338V304.625L336.925 286.1L509.062 285.563C510.765 285.558 512.452 285.889 514.026 286.536C515.601 287.184 517.033 288.136 518.239 289.338C519.445 290.54 520.403 291.967 521.057 293.54C521.711 295.112 522.048 296.797 522.05 298.5Z" fill="#E0E0E0"/>
<path d="M375.438 309.5L503.95 308.9L503.925 304.95L375.425 305.55L375.438 309.5Z" fill="#F5F5F5"/>
<path d="M375.438 322.488L503.95 321.9L503.925 317.95L375.425 318.538L375.438 322.488Z" fill="#F5F5F5"/>
<path d="M424.65 333.05H373.8V337H424.65V333.05Z" fill="#F5F5F5"/>
<path d="M400.75 494.563C379.588 473.95 379.238 442.063 384.738 414.375C385.662 409.75 385.987 404.763 388.837 401.038C391.687 397.313 397.325 395.375 401.175 398.025C404.362 400.213 405.212 404.475 406.6 408.113C408.449 412.969 411.639 417.2 415.8 420.313C418.512 422.338 422.05 423.875 425.2 422.75C429.575 421.188 430.962 415.725 431.687 411.1C433.037 402.467 434.395 393.838 435.762 385.213C436.487 380.575 437.25 375.85 439.4 371.7C441.549 367.55 445.412 363.988 450.012 363.475C454.612 362.963 459.637 366.387 459.824 371.075C459.683 373.016 459.411 374.945 459.012 376.85C458.824 378.788 459.374 381.063 461.112 381.85C462.849 382.638 464.937 381.688 466.537 380.6C472.074 376.713 476.299 371.238 480.287 365.75C484.274 360.263 488.237 354.613 493.412 350.225C498.587 345.837 505.224 342.787 511.911 343.5C518.599 344.212 524.999 349.45 525.599 356.25C526.199 363.05 521.324 369.038 516.324 373.638C508.9 380.462 500.531 386.179 491.474 390.613C489.849 391.413 488.087 392.263 487.249 393.888C485.737 396.813 488.162 400.35 490.999 401.863C494.262 403.575 498.049 403.825 501.586 404.85C505.124 405.875 508.774 408.088 509.586 411.725C510.699 416.725 505.936 421.063 501.511 423.675C492.654 428.901 482.962 432.563 472.862 434.5C469.262 435.188 465.499 435.688 462.362 437.638C459.224 439.588 456.899 443.463 458.024 446.988C459.149 450.513 463.224 452.263 466.899 452.188C470.574 452.113 474.074 450.688 477.687 449.963C484.437 448.613 492.574 450.388 495.737 456.55C497.824 460.6 497.237 465.663 495.174 469.75C492.935 473.74 489.917 477.238 486.299 480.038C474.149 490.313 459.537 497.8 443.949 500.5C428.362 503.2 414.487 502.35 400.712 494.588" fill="#EC4747"/>
<path d="M397 515.162C400.393 502.455 404.998 490.102 410.75 478.274C417.86 463.858 425.79 449.86 434.5 436.35L441.3 425.687C443.537 422.187 445.75 418.712 448.137 415.462C452.73 409.205 457.667 403.209 462.925 397.5C467.925 392.012 472.8 387 477.438 382.337C482.075 377.675 486.475 373.437 490.663 369.737C497.227 363.856 504.249 358.506 511.663 353.737C514.288 352.05 516.363 350.8 517.775 349.988L519.4 349.05C519.59 348.931 519.791 348.83 520 348.75C519.836 348.89 519.66 349.015 519.475 349.125L517.9 350.125C516.513 350.988 514.475 352.275 511.888 354.012C504.559 358.87 497.61 364.277 491.1 370.187C486.95 373.937 482.588 378.175 477.975 382.837C473.363 387.5 468.488 392.55 463.55 398.025C458.345 403.721 453.454 409.696 448.9 415.925C446.537 419.162 444.337 422.612 442.1 426.112C439.862 429.612 437.612 433.175 435.312 436.775C426.629 450.262 418.7 464.221 411.562 478.587C405.783 490.353 401.121 502.636 397.637 515.274" fill="#263238"/>
<path d="M448.425 415.462C448.315 414.785 448.273 414.098 448.3 413.413C448.3 412.1 448.3 410.187 448.3 407.837C448.4 403.125 448.762 396.587 449.175 389.45C449.587 382.312 449.875 375.8 449.9 371.088C449.9 368.738 449.9 366.838 449.9 365.525C449.845 364.841 449.87 364.153 449.975 363.475C450.13 364.144 450.218 364.826 450.237 365.513C450.362 366.763 450.45 368.725 450.512 371.088C450.637 375.8 450.512 382.338 450.037 389.5C449.562 396.663 449.212 402.975 448.9 407.863C448.787 410.063 448.687 411.925 448.6 413.425C448.621 414.109 448.562 414.792 448.425 415.462Z" fill="#263238"/>
<path d="M509.713 414.087C508.907 414.134 508.099 414.101 507.3 413.987C505.75 413.875 503.55 413.687 500.737 413.562C495.187 413.262 487.525 413.112 479.05 413.312C470.575 413.512 462.925 414.05 457.387 414.562C454.625 414.812 452.387 415.075 450.85 415.25C450.049 415.389 449.237 415.452 448.425 415.437C449.199 415.192 449.994 415.016 450.8 414.912C452.337 414.637 454.55 414.287 457.325 413.95C462.862 413.25 470.537 412.637 479.037 412.412C486.287 412.214 493.543 412.385 500.775 412.925C503.55 413.137 505.775 413.4 507.338 413.625C508.142 413.701 508.938 413.856 509.713 414.087Z" fill="#263238"/>
<path d="M411.712 477.3C411.712 477.3 411.587 477.037 411.425 476.512C411.262 475.987 411.025 475.125 410.75 474.188C410.187 472.175 409.437 469.188 408.562 465.6C406.812 458.313 404.712 448.188 402.537 436.963C400.362 425.738 398.35 415.613 396.75 408.3C395.963 404.75 395.313 401.825 394.838 399.65C394.625 398.713 394.463 397.925 394.325 397.287C394.246 397.015 394.204 396.734 394.2 396.45C394.34 396.7 394.441 396.97 394.5 397.25C394.675 397.875 394.888 398.637 395.163 399.562C395.725 401.575 396.475 404.563 397.35 408.163C399.1 415.438 401.212 425.575 403.375 436.8C405.537 448.025 407.562 458.15 409.162 465.462C409.95 469.012 410.6 471.938 411.075 474.113C411.287 475.05 411.45 475.825 411.587 476.463C411.665 476.735 411.707 477.017 411.712 477.3Z" fill="#263238"/>
<path d="M494.9 464.775C494.631 464.875 494.349 464.938 494.063 464.962L491.638 465.362L482.725 466.712C475.225 467.862 464.838 469.575 453.375 471.462C441.913 473.35 431.513 474.975 423.963 475.962C420.213 476.462 417.125 476.837 415.013 477.05L412.513 477.287C412.231 477.331 411.944 477.331 411.663 477.287C411.934 477.195 412.215 477.132 412.5 477.1L414.913 476.7L423.825 475.35C431.325 474.2 441.725 472.5 453.188 470.6C464.65 468.7 475.05 467.087 482.6 466.1C486.35 465.6 489.425 465.225 491.55 465.012L494.05 464.787C494.331 464.738 494.618 464.734 494.9 464.775Z" fill="#263238"/>
<path d="M190.475 213.487C188.591 211.916 187.155 209.875 186.314 207.57C185.474 205.264 185.257 202.778 185.688 200.362C186.162 197.959 187.109 195.674 188.474 193.64C189.839 191.606 191.594 189.863 193.638 188.513C195.5 187.263 197.813 186.212 199.988 186.85C200.984 187.213 201.866 187.836 202.543 188.653C203.22 189.47 203.666 190.453 203.838 191.5C204.154 193.611 203.903 195.768 203.113 197.75C200.738 204.6 197.188 210.8 190.475 213.525" fill="#455A64"/>
<path d="M184.138 225.188C180.287 221.742 175.67 219.264 170.67 217.96C165.67 216.655 160.431 216.562 155.387 217.688C152.887 218.275 149.95 219.625 149.537 222.213C149.125 224.8 151.425 227.013 153.7 228.338C158.502 231.003 163.985 232.189 169.46 231.744C174.934 231.299 180.154 229.244 184.463 225.838" fill="#455A64"/>
<path d="M147.5 171.012C149.623 170.522 151.823 170.462 153.97 170.836C156.117 171.209 158.167 172.009 160 173.187C163.681 175.589 166.761 178.805 169 182.587C173.525 189.737 175.125 199.362 175.325 207.825C165.925 207.45 157.9 200.062 154.075 196.05C148 189.725 140.875 174.612 147.425 171.05" fill="#455A64"/>
<path d="M198.35 237.975C197.495 236.841 196.71 235.655 196 234.425C193.568 229.656 191.789 224.581 190.713 219.338C189.652 214.025 190.059 208.524 191.887 203.425C192.459 201.899 193.219 200.45 194.15 199.112C194.466 198.602 194.858 198.143 195.312 197.75C194.226 199.64 193.29 201.613 192.512 203.65C190.927 208.67 190.626 214.008 191.637 219.175C192.728 224.349 194.405 229.382 196.637 234.175" fill="#263238"/>
<path d="M198.438 238.087L193.537 231.775C189.425 226.437 183.712 219.075 177.287 211.025C170.862 202.975 164.975 195.775 160.7 190.575L155.7 184.325C155.041 183.599 154.447 182.817 153.925 181.987C154.662 182.633 155.348 183.335 155.975 184.087C157.225 185.487 159.062 187.525 161.275 190.075C165.687 195.175 171.675 202.325 178.1 210.375C184.525 218.425 190.137 225.862 194.125 231.312C196.125 234.037 197.712 236.312 198.788 237.8" fill="#263238"/>
<path d="M161.25 223.225C161.761 222.972 162.31 222.803 162.875 222.725C163.518 222.548 164.174 222.422 164.837 222.35C165.711 222.206 166.591 222.11 167.475 222.063C169.782 221.917 172.098 222.005 174.387 222.325C177.185 222.742 179.93 223.459 182.575 224.463C185.208 225.515 187.722 226.843 190.075 228.425C191.975 229.736 193.738 231.235 195.338 232.9C195.962 233.529 196.55 234.192 197.1 234.888C197.552 235.393 197.969 235.927 198.35 236.487C198.962 237.4 198.875 237.825 198.825 237.862C197.606 236.298 196.304 234.8 194.925 233.375C193.294 231.815 191.529 230.401 189.65 229.15C187.334 227.66 184.876 226.404 182.312 225.4C179.727 224.419 177.052 223.695 174.325 223.238C172.093 222.882 169.834 222.731 167.575 222.788C163.625 222.825 161.25 223.4 161.25 223.225Z" fill="#263238"/>
<path d="M370.925 542.175L226.55 541.5C218.221 541.451 210.252 538.098 204.393 532.178C198.534 526.258 195.263 518.254 195.3 509.925L196.825 147.962C196.861 139.628 200.205 131.649 206.12 125.777C212.036 119.906 220.04 116.623 228.375 116.65L372.75 117.312C381.079 117.369 389.046 120.725 394.904 126.647C400.762 132.568 404.033 140.571 404 148.9L402.5 510.85C402.464 519.19 399.117 527.175 393.197 533.049C387.276 538.923 379.265 542.205 370.925 542.175Z" fill="#263238"/>
<path d="M372.5 129.813L344.5 129.675C343.587 129.691 342.687 129.887 341.85 130.252C341.013 130.616 340.256 131.142 339.622 131.799C338.988 132.456 338.49 133.231 338.156 134.081C337.822 134.93 337.658 135.837 337.675 136.75V141.825C337.692 142.738 337.528 143.645 337.194 144.494C336.86 145.344 336.362 146.119 335.728 146.776C335.094 147.433 334.337 147.959 333.5 148.324C332.663 148.688 331.763 148.884 330.85 148.9L276.287 148.65C274.445 148.598 272.699 147.817 271.431 146.479C270.163 145.141 269.478 143.355 269.525 141.513V136.438C269.572 134.593 268.885 132.805 267.615 131.467C266.344 130.129 264.595 129.349 262.75 129.3H252.912L228.412 129.188C222.569 129.164 216.955 131.462 212.804 135.575C208.653 139.689 206.305 145.281 206.275 151.125L204.787 504.413C204.764 510.253 207.06 515.864 211.171 520.012C215.282 524.161 220.872 526.508 226.712 526.538L370.8 527.2C373.692 527.213 376.559 526.657 379.236 525.562C381.913 524.467 384.349 522.856 386.403 520.82C388.458 518.784 390.091 516.363 391.21 513.696C392.329 511.029 392.912 508.168 392.925 505.275L394.412 151.975C394.434 149.08 393.884 146.209 392.793 143.526C391.702 140.844 390.093 138.404 388.057 136.345C386.022 134.286 383.6 132.649 380.93 131.528C378.26 130.407 375.395 129.824 372.5 129.813Z" fill="#FAFAFA"/>
<path d="M290.999 493.325C291.091 493.934 290.994 494.556 290.722 495.108C290.449 495.661 290.014 496.116 289.475 496.413C288.936 496.71 288.319 496.835 287.706 496.771C287.094 496.707 286.516 496.456 286.051 496.053C285.585 495.651 285.254 495.115 285.102 494.518C284.95 493.921 284.985 493.292 285.201 492.716C285.418 492.139 285.806 491.643 286.313 491.294C286.82 490.944 287.422 490.759 288.037 490.762C288.768 490.717 289.487 490.96 290.041 491.439C290.595 491.918 290.939 492.595 290.999 493.325Z" fill="#455A64"/>
<path d="M300.213 493.375C300.303 493.984 300.203 494.605 299.929 495.156C299.654 495.707 299.218 496.16 298.678 496.456C298.138 496.751 297.52 496.874 296.908 496.808C296.297 496.742 295.72 496.49 295.255 496.086C294.79 495.683 294.461 495.146 294.31 494.55C294.16 493.953 294.195 493.325 294.412 492.749C294.63 492.173 295.018 491.678 295.525 491.33C296.033 490.981 296.634 490.796 297.25 490.8C297.983 490.755 298.704 491 299.258 491.482C299.813 491.963 300.156 492.643 300.213 493.375Z" fill="#455A64"/>
<path d="M309.424 493.412C309.516 494.021 309.419 494.643 309.147 495.196C308.874 495.748 308.439 496.203 307.9 496.5C307.361 496.798 306.744 496.923 306.131 496.858C305.519 496.794 304.941 496.543 304.476 496.141C304.01 495.738 303.679 495.202 303.527 494.605C303.376 494.008 303.41 493.379 303.627 492.803C303.843 492.227 304.231 491.73 304.738 491.381C305.245 491.032 305.847 490.846 306.462 490.85C307.194 490.801 307.915 491.043 308.469 491.523C309.023 492.002 309.367 492.681 309.424 493.412Z" fill="#455A64"/>
<path d="M249.4 300.125C251.75 300.462 393.375 328.237 393.375 328.237V300.125H249.4Z" fill="#EBEBEB"/>
<path d="M204.837 478.625C204.837 478.625 358.912 456.825 357.562 457.5C356.212 458.175 204.837 457.5 204.837 457.5V478.625Z" fill="#EBEBEB"/>
<path d="M383.75 66.1375C383.925 66.1375 384.075 73.925 384.075 83.525C384.075 93.125 383.925 100.925 383.75 100.925C383.575 100.925 383.425 93.1375 383.425 83.525C383.425 73.9125 383.575 66.1375 383.75 66.1375Z" fill="#263238"/>
<path d="M445.413 106.175C445.488 106.338 438.413 109.613 429.625 113.488C420.838 117.363 413.65 120.388 413.575 120.213C413.5 120.038 420.575 116.775 429.363 112.9C438.15 109.025 445.338 106 445.413 106.175Z" fill="#263238"/>
<path d="M443.85 45.45C443.776 45.6901 443.667 45.9176 443.525 46.125C443.238 46.6 442.887 47.2125 442.45 47.9625C441.512 49.5625 440.125 51.85 438.375 54.65C434.875 60.275 429.837 67.9 424.125 76.225C418.412 84.55 413.338 92.1375 409.738 97.6875C407.975 100.4 406.538 102.688 405.488 104.263L404.313 106.038C404.188 106.255 404.037 106.457 403.862 106.638C403.955 106.403 404.068 106.177 404.2 105.963C404.487 105.488 404.837 104.875 405.275 104.125C406.2 102.525 407.6 100.25 409.35 97.4375C412.85 91.8125 417.887 84.1875 423.587 75.8625C429.287 67.5375 434.388 60 437.988 54.4125L442.238 47.825L443.413 46.05C443.542 45.8383 443.688 45.6377 443.85 45.45Z" fill="#263238"/>
<path d="M530.288 192.613H248.475C247.028 192.613 245.595 192.898 244.258 193.452C242.921 194.006 241.706 194.818 240.684 195.842C239.661 196.866 238.85 198.082 238.297 199.419C237.745 200.757 237.461 202.19 237.463 203.638V291.05C237.461 292.497 237.745 293.931 238.297 295.268C238.85 296.606 239.661 297.821 240.684 298.845C241.706 299.869 242.921 300.681 244.258 301.236C245.595 301.79 247.028 302.075 248.475 302.075H269.475C271.163 311.2 273.138 322.713 273.138 322.713L292.138 302.075H530.288C531.735 302.075 533.168 301.79 534.505 301.236C535.842 300.681 537.056 299.869 538.079 298.845C539.102 297.821 539.913 296.606 540.466 295.268C541.018 293.931 541.302 292.497 541.3 291.05V203.638C541.302 202.19 541.018 200.757 540.466 199.419C539.913 198.082 539.102 196.866 538.079 195.842C537.056 194.818 535.842 194.006 534.505 193.452C533.168 192.898 531.735 192.613 530.288 192.613Z" fill="#EC4747"/>
<path d="M414.012 240C414.012 240.175 380.475 240.325 339.112 240.325C297.75 240.325 264.2 240.175 264.2 240C264.2 239.825 297.738 239.662 339.112 239.662C380.487 239.662 414.012 239.85 414.012 240Z" fill="#F5F5F5"/>
<path d="M414.012 226.6C414.012 226.775 380.475 226.925 339.112 226.925C297.75 226.925 264.2 226.775 264.2 226.6C264.2 226.425 297.738 226.275 339.112 226.275C380.487 226.275 414.012 226.413 414.012 226.6Z" fill="#F5F5F5"/>
<path d="M414.012 253.325C414.012 253.5 380.475 253.65 339.112 253.65C297.75 253.65 264.2 253.5 264.2 253.325C264.2 253.15 297.738 253 339.112 253C380.487 253 414.012 253.137 414.012 253.325Z" fill="#F5F5F5"/>
<path d="M362.325 267.087C362.325 267.262 340.362 267.412 313.263 267.412C286.163 267.412 264.2 267.262 264.2 267.087C264.2 266.912 286.163 266.762 313.263 266.762C340.362 266.762 362.325 266.9 362.325 267.087Z" fill="#F5F5F5"/>
<path d="M402.95 349.775H118.838C117.823 349.773 116.819 349.972 115.881 350.36C114.944 350.748 114.092 351.317 113.376 352.035C112.659 352.753 112.091 353.605 111.705 354.543C111.319 355.481 111.122 356.486 111.125 357.5V450C111.125 452.045 111.938 454.007 113.384 455.454C114.83 456.9 116.792 457.713 118.838 457.713H325.188L343.938 478.125C343.938 478.125 345.9 466.65 347.563 457.713H402.913C404.958 457.713 406.92 456.9 408.366 455.454C409.813 454.007 410.625 452.045 410.625 450V357.5C410.628 356.489 410.433 355.487 410.049 354.551C409.665 353.616 409.1 352.765 408.388 352.048C407.675 351.331 406.828 350.761 405.895 350.371C404.962 349.981 403.961 349.778 402.95 349.775Z" fill="#455A64"/>
<path d="M391.812 397.5C391.812 397.675 358.275 397.825 316.9 397.825C275.525 397.825 241.988 397.675 241.988 397.5C241.988 397.325 275.525 397.175 316.9 397.175C358.275 397.175 391.812 397.275 391.812 397.5Z" fill="#F5F5F5"/>
<path d="M391.812 384.025C391.812 384.2 358.275 384.35 316.9 384.35C275.525 384.35 241.988 384.2 241.988 384.025C241.988 383.85 275.525 383.7 316.9 383.7C358.275 383.7 391.812 383.837 391.812 384.025Z" fill="#F5F5F5"/>
<path d="M391.812 410.75C391.812 410.925 358.275 411.075 316.9 411.075C275.525 411.075 241.988 410.925 241.988 410.75C241.988 410.575 275.525 410.425 316.9 410.425C358.275 410.425 391.812 410.575 391.812 410.75Z" fill="#F5F5F5"/>
<path d="M340.125 424.513C340.125 424.7 318.163 424.837 291.063 424.837C263.963 424.837 241.988 424.7 241.988 424.513C241.988 424.325 263.963 424.188 291.063 424.188C318.163 424.188 340.125 424.338 340.125 424.513Z" fill="#F5F5F5"/>
<path d="M459.438 155.537C459.613 153.237 457.563 150.075 455.688 148.25C454.601 147.271 453.825 145.995 453.454 144.58C453.083 143.166 453.134 141.673 453.6 140.287C454.363 137.45 456.163 137.662 456.875 135.987C457.221 134.692 457.361 133.351 457.288 132.012C457.436 130.882 457.816 129.794 458.403 128.816C458.991 127.839 459.773 126.993 460.702 126.332C461.631 125.67 462.687 125.207 463.802 124.972C464.918 124.736 466.071 124.733 467.188 124.962C467.808 122.744 469.082 120.764 470.842 119.278C472.603 117.793 474.769 116.871 477.061 116.633C479.352 116.394 481.662 116.85 483.691 117.941C485.719 119.031 487.373 120.707 488.438 122.75C489.732 122.092 491.168 121.764 492.619 121.793C494.071 121.822 495.492 122.209 496.759 122.918C498.026 123.627 499.098 124.638 499.881 125.86C500.665 127.082 501.135 128.478 501.25 129.925C502.562 129.088 504.133 128.753 505.672 128.983C507.211 129.213 508.615 129.991 509.626 131.175C510.574 132.413 511.137 133.903 511.244 135.459C511.35 137.016 510.996 138.569 510.226 139.925C509.433 141.27 508.347 142.418 507.048 143.284C505.75 144.15 504.272 144.711 502.725 144.925C499.624 145.319 496.477 144.747 493.713 143.287C490.96 141.837 488.461 139.95 486.313 137.7" fill="#263238"/>
<path d="M479.875 299.187C509.76 299.187 533.987 275.526 533.987 246.337C533.987 217.149 509.76 193.487 479.875 193.487C449.989 193.487 425.762 217.149 425.762 246.337C425.762 275.526 449.989 299.187 479.875 299.187Z" fill="#E0E0E0"/>
<path d="M534.212 246.375L528.225 231.025L506.763 244.513L525.887 274C525.887 274 533.662 263.9 534.212 246.375Z" fill="#EB996E"/>
<path d="M475 213.125C478.697 213.147 482.261 211.745 484.954 209.211C487.646 206.677 489.26 203.204 489.463 199.512C489.775 193.15 490.05 187.012 490.05 187.012C490.05 187.012 501.85 186.162 502.938 174.612C504.025 163.062 504.188 136.375 504.188 136.375C497.785 133.015 490.608 131.41 483.384 131.724C476.16 132.038 469.149 134.259 463.063 138.162L461.938 138.875L460.575 198.625C460.562 200.527 460.925 202.412 461.645 204.172C462.364 205.932 463.425 207.533 464.766 208.881C466.107 210.229 467.702 211.298 469.458 212.027C471.215 212.755 473.098 213.128 475 213.125Z" fill="#FFBE9D"/>
<path d="M481.725 154.15C482.036 154.259 482.307 154.458 482.506 154.721C482.704 154.984 482.82 155.3 482.84 155.629C482.86 155.958 482.782 156.285 482.617 156.57C482.451 156.855 482.206 157.085 481.91 157.231C481.615 157.377 481.283 157.433 480.956 157.391C480.629 157.35 480.322 157.212 480.073 156.997C479.823 156.781 479.643 156.497 479.555 156.18C479.466 155.862 479.473 155.526 479.575 155.212C479.72 154.787 480.028 154.436 480.431 154.237C480.834 154.038 481.299 154.007 481.725 154.15Z" fill="#263238"/>
<path d="M485 154.75C484.8 154.937 483.75 153.987 482.1 153.887C480.45 153.787 479.275 154.537 479.113 154.325C478.95 154.112 479.238 153.875 479.763 153.525C480.482 153.071 481.327 152.861 482.175 152.925C483.019 152.982 483.821 153.311 484.463 153.862C484.9 154.287 485.063 154.662 485 154.75Z" fill="#263238"/>
<path d="M499.35 154.15C499.661 154.259 499.932 154.458 500.131 154.721C500.329 154.984 500.445 155.3 500.465 155.629C500.485 155.958 500.407 156.285 500.242 156.57C500.076 156.855 499.831 157.085 499.535 157.231C499.24 157.377 498.908 157.433 498.581 157.391C498.254 157.35 497.947 157.212 497.698 156.997C497.448 156.781 497.268 156.497 497.179 156.18C497.091 155.862 497.098 155.526 497.2 155.212C497.345 154.787 497.653 154.436 498.056 154.237C498.459 154.038 498.924 154.007 499.35 154.15Z" fill="#263238"/>
<path d="M502.8 154.775C502.613 154.974 501.55 154.025 499.9 153.925C498.25 153.825 497.075 154.575 496.912 154.362C496.75 154.15 497.037 153.912 497.575 153.562C498.289 153.107 499.131 152.897 499.975 152.962C500.822 153.022 501.628 153.35 502.275 153.9C502.75 154.325 502.9 154.7 502.8 154.775Z" fill="#263238"/>
<path d="M490.675 167.262C491.528 166.999 492.42 166.885 493.313 166.925C493.738 166.925 494.075 166.85 494.125 166.625C494.184 166.198 494.114 165.763 493.925 165.375C493.6 164.287 493.263 163.187 492.913 162.037C491.538 157.287 490.625 153.387 490.863 153.287C491.1 153.187 492.425 157.037 493.8 161.762C494.125 162.912 494.425 164.025 494.738 165.112C494.964 165.669 494.995 166.286 494.825 166.862C494.75 167.018 494.639 167.155 494.503 167.261C494.366 167.367 494.207 167.44 494.038 167.475C493.797 167.505 493.553 167.505 493.313 167.475C492.428 167.555 491.536 167.483 490.675 167.262Z" fill="#263238"/>
<path d="M490 186.863C484.615 186.529 479.448 184.611 475.15 181.35C475.15 181.35 478.063 189.962 489.787 189.862L490 186.863Z" fill="#EB996E"/>
<path d="M461.587 155.85C461.598 155.397 461.432 154.957 461.124 154.623C460.816 154.29 460.391 154.089 459.938 154.063C457.763 153.963 454.188 154.75 453.688 160.7C453.038 169.2 461.338 167.238 461.375 166.95C461.413 166.663 461.55 159.163 461.587 155.85Z" fill="#FFBE9D"/>
<path d="M459.6 163.613C459.6 163.613 459.438 163.712 459.175 163.8C458.999 163.873 458.81 163.911 458.619 163.911C458.428 163.911 458.239 163.873 458.063 163.8C457.535 163.412 457.121 162.89 456.863 162.287C456.606 161.685 456.515 161.025 456.6 160.375C456.631 159.645 456.828 158.931 457.175 158.287C457.282 158.024 457.452 157.791 457.67 157.608C457.888 157.425 458.147 157.298 458.425 157.238C458.6 157.203 458.782 157.231 458.938 157.318C459.093 157.405 459.213 157.545 459.275 157.712C459.375 157.95 459.275 158.125 459.35 158.138C459.425 158.15 459.55 158.013 459.5 157.65C459.469 157.437 459.363 157.241 459.2 157.1C458.981 156.904 458.694 156.801 458.4 156.812C458.038 156.859 457.695 156.998 457.403 157.217C457.112 157.436 456.882 157.728 456.738 158.062C456.309 158.765 456.068 159.565 456.037 160.388C455.94 161.143 456.069 161.911 456.407 162.594C456.745 163.276 457.278 163.844 457.938 164.225C458.164 164.307 458.405 164.338 458.645 164.316C458.885 164.295 459.117 164.221 459.325 164.1C459.563 163.825 459.625 163.638 459.6 163.613Z" fill="#EB996E"/>
<path d="M477.35 150.212C477.775 150.762 479.25 150.512 481.175 150.425C483.1 150.337 484.587 150.35 484.925 149.75C485.262 149.15 483.475 147.713 481 147.925C478.525 148.138 476.875 149.65 477.35 150.212Z" fill="#263238"/>
<path d="M496.075 149.65C496.3 150.387 497.712 150.612 499.275 150.6C500.837 150.587 502.237 150.312 502.45 149.562C502.662 148.812 501.2 147.8 499.237 147.825C497.275 147.85 495.837 148.925 496.075 149.65Z" fill="#263238"/>
<path d="M505.775 140C505.775 140 498.762 143.4 489.65 138.85C483.662 135.863 476.7 134.4 475.162 135.6C473.625 136.8 473.3 142.975 467.375 144.775C467.375 144.775 467.775 156.525 463.087 156.113C458.4 155.7 461.325 137.5 461.325 137.5L472.8 131.9L485.3 129.538L497.087 131.2L506.212 133.7L505.775 140Z" fill="#263238"/>
<path d="M427.262 208.1C439.525 195.487 461.1 196.85 461.1 196.85L478.988 209.663L489.125 197.85C496.313 198.829 503.29 200.987 509.775 204.238L510.463 204.45V204.588C518.313 208.85 529.413 219.075 540.001 228.988L527.338 240.738L513.313 253.238C513.345 253.318 513.345 253.408 513.313 253.488C513.175 254.25 515.263 271.363 517.413 284.363C511.309 290.384 503.83 294.826 495.624 297.307C487.417 299.788 478.73 300.232 470.313 298.601C464.575 297.588 461.8 296.201 456.488 294.851C452.66 293.836 449.238 291.665 446.69 288.634C444.142 285.602 442.591 281.858 442.25 277.913C441.3 267.013 440.575 253.513 440.575 253.513" fill="#455A64"/>
<path d="M500.337 200.062C500.651 200.711 500.91 201.384 501.112 202.075C501.575 203.325 502.187 205.287 502.925 207.65C504.4 212.375 506.287 218.9 508.062 226.313C509.837 233.725 511.174 240.388 512.012 245.263C512.437 247.763 512.749 249.688 512.937 251.063C513.071 251.768 513.15 252.482 513.174 253.2C512.954 252.515 512.791 251.812 512.687 251.1C512.399 249.638 512.024 247.7 511.562 245.35C510.6 240.5 509.2 233.812 507.425 226.462C505.65 219.112 503.85 212.5 502.5 207.787L500.875 202.15C500.647 201.468 500.468 200.77 500.337 200.062Z" fill="#263238"/>
<path d="M511.85 245.125C511.738 244.988 517.088 240.438 523.8 234.975C530.513 229.512 536.038 225.187 536.15 225.325C536.263 225.462 530.925 230.012 524.213 235.475C517.5 240.938 511.975 245.263 511.85 245.125Z" fill="#263238"/>
<path opacity="0.2" d="M443.45 225.4L432.5 261.488L436.587 263.613L440.612 253.413C440.612 253.413 444.713 231.963 443.45 225.4Z" fill="black"/>
<g opacity="0.2">
<path opacity="0.2" d="M499.15 200.088C505.063 203.2 490.238 210.7 483.55 210.5L488.413 197.675C488.413 197.675 497.163 199.038 499.15 200.088Z" fill="black"/>
</g>
<path d="M459.337 197.675V188.112C459.337 188.112 478 192.925 478.675 204.088C478.675 204.088 481.05 191.737 490.675 191.15L492.038 208.512L480.788 218.263H469.5L460.512 210.5L459.337 198.45" fill="#455A64"/>
<path d="M482.887 257.663C482.823 256.981 482.823 256.294 482.887 255.613C482.887 254.288 482.887 252.375 482.95 250.013C482.95 245.3 482.812 238.763 482.225 231.6C481.637 224.438 480.688 217.962 479.9 213.312C479.5 211.075 479.163 209.225 478.913 207.812C478.75 207.144 478.65 206.462 478.613 205.775C478.847 206.422 479.031 207.087 479.162 207.762C479.487 209.012 479.9 210.912 480.35 213.237C481.507 219.293 482.341 225.406 482.85 231.55C483.355 237.695 483.531 243.862 483.375 250.025C483.312 252.388 483.225 254.3 483.112 255.625C483.085 256.309 483.01 256.99 482.887 257.663Z" fill="#263238"/>
<path d="M477.825 200.875C477.452 200.812 477.069 200.847 476.713 200.975C475.796 201.491 475.122 202.35 474.837 203.363C473.296 206.696 472.094 210.176 471.25 213.75L471.15 214.175L470.775 213.95C469.662 213.275 468.513 212.55 467.363 211.775C465.267 210.348 463.248 208.813 461.312 207.175C460.432 206.44 459.728 205.518 459.25 204.475C458.874 203.557 458.663 202.579 458.625 201.588C458.587 200.184 458.726 198.781 459.038 197.413C459.112 196.901 459.251 196.402 459.45 195.925C459.434 196.437 459.38 196.946 459.287 197.45C459.076 198.81 459.008 200.188 459.087 201.563C459.147 202.491 459.371 203.401 459.75 204.25C460.208 205.22 460.879 206.075 461.712 206.75C463.475 208.225 465.525 209.75 467.725 211.25C468.875 212.025 470 212.763 471.113 213.438L470.638 213.638C471.473 210.047 472.732 206.569 474.388 203.275C474.642 202.698 474.97 202.156 475.363 201.663C475.67 201.281 476.083 200.999 476.55 200.85C477.5 200.55 477.85 200.863 477.825 200.875Z" fill="#263238"/>
<path d="M490.675 191.15C490.788 191.638 490.847 192.137 490.85 192.637L491.15 196.712C491.288 198.425 491.5 200.462 491.85 202.7C492.15 203.901 492.227 205.147 492.075 206.375C491.602 207.663 490.725 208.764 489.575 209.512C488.114 210.42 486.741 211.462 485.475 212.625L484.975 213.187V212.437C484.748 209.172 483.805 205.997 482.213 203.137C481.025 201 480.05 199.912 480.125 199.85C480.2 199.787 480.425 200.075 480.863 200.587C481.49 201.325 482.059 202.11 482.563 202.937C484.301 205.811 485.341 209.052 485.6 212.4L485.05 212.212C486.334 211 487.737 209.92 489.238 208.987C490.253 208.32 491.032 207.349 491.463 206.212C491.594 205.068 491.526 203.909 491.263 202.787C490.95 200.525 490.788 198.462 490.7 196.737C490.613 195.012 490.6 193.612 490.613 192.65C490.57 192.149 490.591 191.645 490.675 191.15Z" fill="#263238"/>
<path d="M550.763 193.55C550.001 194.437 522.5 231.25 522.5 231.25L526.375 233.45L554.576 197.2L550.763 193.55Z" fill="#263238"/>
<path d="M440.35 222.6C440.35 222.6 469.262 264.225 471.012 265.038C474.437 266.65 513.987 232.475 517.762 229.2C518.287 228.5 519.362 227.038 521.512 224.125C521.512 224.125 524.637 209.85 527.962 210.937C531.287 212.025 526.137 218.2 528.312 223.625C530.487 229.05 540.412 216.125 540.812 214.95L543.375 211.6C543.375 211.6 546.062 219.212 545.875 222.4C545.287 232.588 535.65 244.7 535.65 244.7C535.65 244.7 492.362 298.325 462.712 299.988C454.175 300.463 438.962 276.238 428.85 258.063C425.897 252.755 424.987 246.551 426.293 240.62C427.598 234.688 431.029 229.439 435.937 225.863L440.35 222.6Z" fill="#FFBE9D"/>
<path d="M540.964 224.2C541.517 222.92 542.134 221.668 542.813 220.45C543.37 219.167 543.995 217.916 544.687 216.7C543.899 219.406 542.63 221.946 540.939 224.2H540.964Z" fill="#EB996E"/>
<path d="M435.462 202.287C435.462 202.287 404.425 213.325 427.5 265.513L463.325 243.888L458.225 231.688L435.462 202.287Z" fill="#455A64"/>
<path d="M433.088 203.2C434.346 203.083 435.616 203.189 436.838 203.512C438.268 203.883 439.636 204.46 440.9 205.225C442.57 206.265 444.093 207.527 445.425 208.975C448.809 212.755 451.646 216.993 453.85 221.563C456.475 226.638 458.925 232.425 461.437 238.488C462.187 240.313 462.938 242.1 463.638 243.8L463.75 244.075L463.488 244.213C453.125 249.863 444.1 255.15 437.725 259.113C434.525 261.088 431.988 262.713 430.225 263.838L428.225 265.088C427.996 265.247 427.754 265.385 427.5 265.5C427.699 265.308 427.916 265.136 428.15 264.988C428.588 264.663 429.238 264.188 430.1 263.6C431.8 262.35 434.313 260.725 437.475 258.7C443.8 254.638 452.8 249.263 463.175 243.6L463.025 244C462.325 242.3 461.575 240.513 460.825 238.688C458.325 232.625 455.825 226.85 453.325 221.788C451.163 217.267 448.396 213.062 445.1 209.287C443.812 207.852 442.341 206.591 440.725 205.537C439.489 204.762 438.151 204.16 436.75 203.75C435.547 203.463 434.322 203.279 433.088 203.2Z" fill="#263238"/>
<path d="M499.838 125.825C499.917 125.999 499.967 126.185 499.988 126.375C500.083 126.907 500.116 127.448 500.088 127.987C499.968 130.017 499.125 131.937 497.713 133.4C496.64 134.471 495.298 135.232 493.828 135.604C492.358 135.976 490.816 135.944 489.363 135.512C487.603 135.044 486.079 133.94 485.088 132.412C484.562 131.57 484.338 130.574 484.45 129.587C484.507 129.073 484.674 128.577 484.939 128.133C485.204 127.689 485.562 127.307 485.988 127.013C486.432 126.733 486.939 126.568 487.462 126.533C487.986 126.498 488.51 126.594 488.988 126.813C489.914 127.206 490.65 127.946 491.038 128.875C491.346 129.742 491.432 130.672 491.288 131.58C491.144 132.488 490.774 133.346 490.213 134.075C489.274 135.29 487.937 136.134 486.437 136.459C484.936 136.783 483.369 136.568 482.013 135.85C481.034 135.337 479.997 134.943 478.925 134.675C478.123 134.494 477.284 134.582 476.538 134.925C475.912 135.262 475.318 135.656 474.763 136.1C474.763 136.1 474.875 135.937 475.125 135.662C475.279 135.49 475.451 135.335 475.638 135.2C475.882 134.997 476.151 134.824 476.438 134.687C477.21 134.301 478.086 134.17 478.938 134.312C480.051 134.553 481.13 134.931 482.15 135.437C482.729 135.693 483.332 135.889 483.95 136.025C484.615 136.149 485.298 136.149 485.963 136.025C487.459 135.787 488.805 134.976 489.713 133.762C490.207 133.116 490.532 132.358 490.658 131.554C490.785 130.751 490.709 129.929 490.438 129.162C490.289 128.775 490.06 128.423 489.766 128.13C489.472 127.836 489.12 127.608 488.732 127.459C488.344 127.311 487.93 127.245 487.515 127.268C487.1 127.29 486.695 127.399 486.325 127.587C485.98 127.835 485.69 128.151 485.475 128.517C485.259 128.883 485.123 129.291 485.075 129.712C484.986 130.555 485.18 131.404 485.625 132.125C486.532 133.521 487.92 134.535 489.525 134.975C490.881 135.39 492.323 135.437 493.703 135.109C495.083 134.782 496.35 134.093 497.375 133.112C498.75 131.743 499.611 129.942 499.813 128.012C499.866 127.285 499.874 126.554 499.838 125.825Z" fill="#455A64"/>
<path d="M493.075 172.962C493.075 173.037 492.7 173.212 492.012 173.237C491.112 173.25 490.221 173.045 489.416 172.64C488.611 172.235 487.915 171.643 487.387 170.912C487.012 170.338 486.9 169.925 486.975 169.888C487.798 170.719 488.717 171.449 489.712 172.062C490.793 172.497 491.922 172.799 493.075 172.962Z" fill="#263238"/>
<path d="M460.3 167.5C460.362 167.5 460.712 168.05 460.3 168.912C460.169 169.156 459.992 169.371 459.777 169.545C459.562 169.719 459.315 169.848 459.05 169.925C458.71 170.001 458.356 169.994 458.019 169.905C457.681 169.816 457.371 169.647 457.113 169.412C456.83 169.182 456.606 168.89 456.456 168.558C456.306 168.226 456.236 167.864 456.25 167.5C456.271 166.95 456.474 166.423 456.825 166C457.425 165.3 458.075 165.225 458.075 165.3C458.075 165.375 457.625 165.612 457.225 166.275C456.969 166.659 456.859 167.122 456.914 167.58C456.969 168.039 457.185 168.462 457.525 168.775C457.709 168.942 457.928 169.066 458.166 169.137C458.404 169.209 458.655 169.226 458.9 169.187C459.312 169.095 459.677 168.855 459.925 168.512C460.325 168 460.2 167.5 460.3 167.5Z" fill="#263238"/>
<path d="M501.9 130C502.311 130.695 502.519 131.492 502.5 132.3C502.599 134.274 501.931 136.21 500.635 137.703C499.34 139.196 497.518 140.131 495.55 140.312C494.752 140.449 493.932 140.353 493.188 140.037C493.188 139.925 494.1 140.037 495.488 139.85C497.288 139.573 498.934 138.668 500.132 137.296C501.331 135.924 502.006 134.172 502.037 132.35C502.075 130.925 501.787 130.063 501.9 130Z" fill="#455A64"/>
<path d="M459.625 234.625C459.7 234.787 451.463 239.025 441.213 244.088C430.963 249.15 422.6 253.138 422.463 252.975C422.325 252.813 430.613 248.575 440.863 243.5C451.113 238.425 459.55 234.462 459.625 234.625Z" fill="#E0E0E0"/>
<path d="M452.112 220.45C452.2 220.6 444.862 224.712 435.725 229.612C426.587 234.512 419.112 238.362 419.037 238.2C418.962 238.037 426.287 233.937 435.425 229.037C444.562 224.137 452.025 220.287 452.112 220.45Z" fill="#E0E0E0"/>
<path d="M444.85 208.988C443.683 209.796 442.459 210.519 441.187 211.15L432.212 216.15L423.288 221.25C422.088 222.014 420.834 222.691 419.538 223.275C420.642 222.372 421.821 221.565 423.063 220.862C425.288 219.45 428.4 217.575 431.9 215.588C435.4 213.6 438.625 211.925 440.987 210.75C442.222 210.053 443.514 209.464 444.85 208.988Z" fill="#E0E0E0"/>
<path d="M472.313 206.25C471.467 206.211 470.64 205.989 469.888 205.6C468.056 204.779 466.367 203.669 464.887 202.313C463.404 200.958 462.041 199.477 460.812 197.887C460.252 197.275 459.776 196.59 459.4 195.85C459.475 195.85 460.125 196.462 461.162 197.6C462.2 198.737 463.6 200.288 465.325 201.825C466.778 203.145 468.396 204.271 470.137 205.175C471.425 205.888 472.338 206.175 472.313 206.25Z" fill="#E0E0E0"/>
<path d="M490.538 199.5C490.124 201.007 489.212 202.329 487.95 203.25C486.831 204.343 485.37 205.018 483.812 205.162C485.108 204.431 486.36 203.626 487.562 202.75C488.608 201.717 489.601 200.632 490.538 199.5Z" fill="#E0E0E0"/>
<path d="M523.051 218.312C522.823 218.383 522.588 218.425 522.351 218.437L520.338 218.687C518.588 218.887 516.051 219.125 512.926 219.375C506.675 219.875 497.925 220.362 488.388 220.712C478.85 221.062 470.113 221.175 463.813 221.125C460.675 221.125 458.125 221.037 456.375 220.975L454.35 220.875C454.114 220.875 453.879 220.846 453.65 220.787C453.882 220.758 454.118 220.758 454.35 220.787H456.375L463.813 220.725C470.063 220.662 478.813 220.462 488.363 220.125C497.913 219.787 506.613 219.35 512.888 218.975L520.313 218.5L522.338 218.375C522.572 218.322 522.811 218.301 523.051 218.312Z" fill="#E0E0E0"/>
<path d="M513.174 233.137C512.499 233.292 511.814 233.4 511.124 233.463C509.787 233.625 507.862 233.825 505.487 234.05C500.725 234.487 494.137 234.937 486.85 235.237C479.562 235.537 472.95 235.6 468.1 235.55C465.712 235.55 463.775 235.475 462.438 235.425C461.742 235.431 461.048 235.376 460.363 235.262C461.051 235.18 461.744 235.146 462.438 235.162L468.1 235.087C472.875 235.087 479.475 234.875 486.75 234.587C494.025 234.3 500.625 233.912 505.387 233.587L511.037 233.2C511.746 233.112 512.462 233.091 513.174 233.137Z" fill="#E0E0E0"/>
<path d="M490.762 251.413C489.403 251.727 488.018 251.923 486.625 252C484.05 252.263 480.5 252.55 476.562 252.75C472.625 252.95 469.062 253.012 466.475 253C465.081 253.066 463.684 253.011 462.3 252.837C463.677 252.627 465.069 252.527 466.462 252.537L476.525 252.1L486.525 251.538C487.933 251.399 489.349 251.357 490.762 251.413Z" fill="#E0E0E0"/>
<path d="M462.125 208.037C462.125 208.225 458.288 208.263 453.563 208.463C448.838 208.663 445.025 208.925 445 208.738C450.651 207.738 456.411 207.503 462.125 208.037Z" fill="#E0E0E0"/>
<path d="M514.85 207.362C511.158 207.666 507.452 207.758 503.75 207.637C500.042 207.735 496.331 207.614 492.638 207.275C496.333 206.963 500.044 206.867 503.75 206.987C507.454 206.889 511.161 207.014 514.85 207.362Z" fill="#E0E0E0"/>
<path d="M516.775 283.425C516.423 283.686 516.042 283.905 515.638 284.075C514.888 284.462 513.775 284.975 512.388 285.562C508.742 287.064 504.979 288.264 501.138 289.15C497.298 290.026 493.393 290.59 489.463 290.837C487.963 290.925 486.738 290.95 485.888 290.925C485.469 290.944 485.049 290.915 484.638 290.837C484.638 290.737 486.488 290.662 489.475 290.375C493.365 290.001 497.227 289.379 501.038 288.512C504.859 287.635 508.617 286.503 512.288 285.125C515 284.075 516.738 283.325 516.775 283.425Z" fill="#E0E0E0"/>
<path d="M179.112 453.562C208.998 453.562 233.225 430.449 233.225 401.937C233.225 373.426 208.998 350.313 179.112 350.313C149.227 350.313 125 373.426 125 401.937C125 430.449 149.227 453.562 179.112 453.562Z" fill="#E0E0E0"/>
<path d="M168.088 277.5C159.513 277.95 156.138 286.9 155.113 288.9C154.232 290.973 153.765 293.198 153.738 295.45C153.711 297.705 153.146 299.921 152.088 301.912C150.2 304.925 146.225 306.487 145.15 309.875C143.9 313.712 147.063 317.812 146.225 321.75C145.775 323.862 144.238 325.6 143.725 327.687C143.252 329.919 143.669 332.247 144.888 334.175C147.7 339.025 153.55 341.45 159.15 341.675C164.75 341.9 170.225 340.2 175.587 338.55" fill="#263238"/>
<path d="M205.863 288.6C205.533 289.548 205.476 290.569 205.697 291.547C205.918 292.526 206.408 293.423 207.113 294.138C208.552 295.518 210.108 296.773 211.763 297.888C212.589 298.457 213.295 299.184 213.84 300.027C214.385 300.87 214.758 301.813 214.938 302.8C215.1 304.625 214.175 306.45 214.425 308.263C215.075 312.95 222.538 314.35 222.925 319.05C223.2 322.188 219.975 325.075 220.875 328.088C221.362 329.218 221.992 330.281 222.75 331.25C224.875 334.775 223.438 339.625 220.363 342.35C217.288 345.075 213.038 346.038 208.937 346.225C205.487 346.375 201.563 345.813 199.538 343.025C197.675 340.463 198.063 336.988 198.425 333.85C200.163 319.2 199.863 304.4 199.575 289.65" fill="#263238"/>
<path d="M170.35 356.388C170.412 348.688 170.35 340.588 170.35 340.588C170.35 340.588 160.462 338.825 158.55 325.875C156.737 313.513 159.8 286.938 159.8 286.938C174.137 281.276 190.287 283.463 200.325 295L198.75 357.5C198.575 364.75 192.187 370.375 184.425 370.125C176.587 369.863 170.287 363.75 170.35 356.388Z" fill="#FFBE9D"/>
<path d="M162.5 307.338C162.49 307.771 162.648 308.19 162.942 308.508C163.237 308.825 163.643 309.016 164.075 309.038C164.286 309.057 164.499 309.034 164.701 308.97C164.903 308.905 165.091 308.802 165.252 308.664C165.414 308.527 165.547 308.359 165.643 308.17C165.739 307.981 165.797 307.775 165.813 307.563C165.82 307.129 165.658 306.71 165.362 306.393C165.066 306.076 164.658 305.886 164.225 305.863C164.014 305.844 163.802 305.868 163.601 305.932C163.399 305.997 163.213 306.1 163.052 306.238C162.892 306.375 162.76 306.543 162.665 306.732C162.57 306.921 162.514 307.127 162.5 307.338Z" fill="#263238"/>
<path d="M159.838 306.063C160.038 306.276 161.3 305.363 163.088 305.388C166.45 305.876 166.387 306.388 166.362 306.101C166.462 306.013 166.263 305.613 165.688 305.201C164.927 304.652 164.013 304.355 163.075 304.351C162.144 304.342 161.235 304.626 160.475 305.163C159.925 305.576 159.738 305.963 159.838 306.063Z" fill="#263238"/>
<path d="M180.775 307.875C180.765 308.306 180.924 308.725 181.218 309.04C181.513 309.356 181.919 309.544 182.35 309.563C182.561 309.584 182.774 309.561 182.976 309.498C183.178 309.434 183.365 309.33 183.526 309.192C183.687 309.055 183.819 308.886 183.913 308.696C184.008 308.506 184.063 308.299 184.075 308.087C184.085 307.655 183.927 307.235 183.633 306.917C183.338 306.6 182.932 306.409 182.5 306.387C182.289 306.37 182.076 306.395 181.875 306.46C181.673 306.526 181.487 306.631 181.327 306.77C181.166 306.908 181.035 307.077 180.94 307.267C180.845 307.457 180.789 307.663 180.775 307.875Z" fill="#263238"/>
<path d="M178.45 306.675C178.65 306.9 179.925 305.976 181.7 306.001C183.475 306.026 184.787 306.938 184.987 306.725C185.187 306.513 184.875 306.238 184.312 305.813C183.547 305.266 182.629 304.973 181.687 304.976C180.758 304.959 179.847 305.24 179.087 305.776C178.538 306.251 178.35 306.575 178.45 306.675Z" fill="#263238"/>
<path d="M171.812 319.488C170.88 319.169 169.909 318.98 168.925 318.925C168.475 318.925 168.038 318.775 167.963 318.463C167.936 317.991 168.049 317.521 168.288 317.113L169.675 313.663C170.953 310.732 172.002 307.707 172.812 304.614C172.612 304.539 170.888 308.476 168.95 313.363C168.488 314.613 168.05 315.738 167.625 316.838C167.327 317.383 167.234 318.017 167.363 318.625C167.425 318.789 167.526 318.935 167.657 319.052C167.787 319.17 167.943 319.255 168.113 319.3C168.359 319.377 168.617 319.415 168.875 319.413C169.847 319.561 170.834 319.586 171.812 319.488Z" fill="#263238"/>
<path d="M170.338 340.587C176.426 340.752 182.44 339.225 187.712 336.175C187.712 336.175 183.413 345.012 170.475 343.675L170.338 340.587Z" fill="#EB996E"/>
<path d="M172.5 323.75C172.846 323.327 173.293 322.999 173.8 322.796C174.308 322.593 174.858 322.521 175.4 322.587C175.812 322.623 176.212 322.745 176.574 322.946C176.935 323.146 177.251 323.42 177.5 323.75C177.735 324.052 177.871 324.419 177.891 324.801C177.911 325.183 177.814 325.562 177.612 325.887C177.319 326.202 176.94 326.423 176.522 326.523C176.104 326.623 175.666 326.597 175.263 326.45C174.424 326.142 173.655 325.67 173 325.062C172.802 324.915 172.633 324.733 172.5 324.525C172.433 324.427 172.398 324.312 172.398 324.194C172.398 324.076 172.433 323.96 172.5 323.862" fill="#EB996E"/>
<path d="M177.063 320.775C176.762 320.775 176.738 322.7 175.063 324.05C173.388 325.4 171.312 325.175 171.312 325.438C171.312 325.7 171.775 325.825 172.637 325.85C173.776 325.89 174.89 325.517 175.775 324.8C176.621 324.12 177.172 323.139 177.313 322.062C177.4 321.25 177.188 320.762 177.063 320.775Z" fill="#263238"/>
<path d="M194.7 285.775C189.975 292.525 177.437 299.463 168.45 301.075C169.487 299.7 175 296.3 176.05 294.925C171.987 297.95 166.162 302.025 160.775 302.288C160.139 302.381 159.49 302.281 158.912 302C158.61 301.758 158.368 301.45 158.205 301.098C158.043 300.747 157.964 300.362 157.975 299.975C157.668 296.065 157.794 292.133 158.35 288.25C158.778 284.969 160.446 281.977 163.013 279.888C166.475 277.213 171.413 276.563 176.075 276.451C179.977 276.197 183.891 276.724 187.588 278C191.163 279.4 194.225 282.188 194.75 285.5" fill="#263238"/>
<path d="M208.275 316.012C208.867 313.157 209.284 310.268 209.525 307.362C209.912 300.687 207.987 276.112 184.975 278.037L184.038 285.05C184.038 285.05 180.488 309.037 195.375 309.212C196.376 314.568 198.993 319.489 202.875 323.312C202.875 323.312 206.775 323.2 208.175 316.012" fill="#263238"/>
<path d="M195.413 309.213C196.803 308.939 198.241 309.047 199.575 309.525C200.911 310.029 201.994 311.04 202.588 312.338C203.106 313.664 203.106 315.137 202.588 316.463C202.052 317.776 201.232 318.954 200.188 319.913C199.499 320.652 198.641 321.214 197.688 321.55C197.207 321.716 196.692 321.759 196.19 321.676C195.688 321.593 195.215 321.387 194.813 321.075" fill="#FFBE9D"/>
<path d="M196.075 317.613C195.913 317.613 196.513 318.5 197.775 318.175C198.115 318.067 198.429 317.893 198.7 317.661C198.971 317.429 199.192 317.144 199.35 316.825C199.741 316.123 199.988 315.349 200.075 314.55C200.195 313.677 199.995 312.789 199.513 312.051C199.318 311.742 199.053 311.483 198.741 311.294C198.429 311.106 198.076 310.992 197.713 310.963C196.463 310.963 196 311.813 196.138 311.838C196.275 311.863 196.75 311.488 197.6 311.701C198.12 311.903 198.549 312.286 198.809 312.78C199.069 313.274 199.141 313.845 199.013 314.388C198.85 315.813 198.288 317.113 197.525 317.425C196.763 317.738 196.163 317.5 196.075 317.613Z" fill="#EB996E"/>
<path d="M197.925 283.251C199.709 284.263 201.819 284.537 203.802 284.014C205.785 283.49 207.485 282.211 208.538 280.451C209.266 279.346 209.527 277.997 209.263 276.7C208.967 275.853 208.455 275.098 207.778 274.511C207.1 273.923 206.28 273.523 205.4 273.35C204.142 273.022 202.822 273.008 201.558 273.311C200.293 273.615 199.123 274.225 198.15 275.088C197.199 275.979 196.518 277.12 196.186 278.38C195.855 279.641 195.885 280.969 196.275 282.213C196.717 283.435 197.528 284.489 198.597 285.229C199.666 285.968 200.938 286.356 202.238 286.339" fill="#263238"/>
<path d="M200 320.55C198.683 321.424 197.482 322.462 196.425 323.638C195.367 324.833 194.816 326.393 194.888 327.988C195.081 328.849 195.178 329.729 195.175 330.612C194.795 331.769 194.177 332.833 193.363 333.737C192.607 335.121 192.313 336.709 192.522 338.271C192.731 339.834 193.433 341.289 194.525 342.425C196.794 344.656 199.855 345.897 203.037 345.875C204.868 346.031 206.701 345.593 208.262 344.625C210.412 343.125 211.237 340.3 211.3 337.662" fill="#263238"/>
<path d="M201.575 288.412C201.257 289.264 200.801 290.058 200.225 290.762C198.954 292.558 197.464 294.188 195.788 295.613C194.124 297.054 192.289 298.284 190.325 299.276C189.547 299.732 188.704 300.065 187.825 300.263C190.481 298.753 193.014 297.035 195.4 295.125C197.63 293.052 199.695 290.808 201.575 288.412Z" fill="#455A64"/>
<path d="M203.962 288.275C203.998 289.345 203.859 290.413 203.55 291.438C202.934 293.94 201.948 296.337 200.625 298.55C199.293 300.756 197.637 302.749 195.713 304.462C194.95 305.214 194.073 305.838 193.113 306.312C195.785 303.939 198.123 301.214 200.063 298.212C201.812 295.094 203.124 291.751 203.962 288.275Z" fill="#455A64"/>
<path d="M154 298.75C154.188 298.75 154.438 300.9 155.25 303.462C156.063 306.025 156.925 307.988 156.75 308.075C154.816 305.362 153.848 302.078 154 298.75Z" fill="#455A64"/>
<path d="M209.137 342.925C209.704 343.297 210.36 343.509 211.037 343.537C211.824 343.527 212.59 343.283 213.237 342.837C214.068 342.226 214.657 341.34 214.9 340.337C215.2 339.105 215.2 337.819 214.9 336.587C214.637 335.225 214.112 333.825 213.65 332.287C213.084 330.685 212.892 328.975 213.087 327.287C213.375 325.462 214.562 323.975 215.137 322.287C215.409 321.481 215.517 320.63 215.455 319.782C215.393 318.934 215.162 318.107 214.775 317.35C214.064 315.914 212.842 314.795 211.35 314.212C210.617 313.938 209.899 313.625 209.2 313.274C208.502 312.93 207.91 312.403 207.488 311.749C206.867 310.535 206.599 309.171 206.712 307.812C206.796 306.752 206.754 305.686 206.588 304.637C206.45 303.856 206.129 303.119 205.65 302.487C205.219 301.96 204.626 301.59 203.962 301.437C204.143 301.393 204.332 301.393 204.512 301.437C205.031 301.572 205.497 301.859 205.85 302.262C206.381 302.915 206.757 303.68 206.95 304.499C207.163 305.573 207.239 306.669 207.175 307.762C207.087 309.023 207.355 310.284 207.95 311.399C208.65 312.549 210.1 313.024 211.575 313.612C213.207 314.235 214.546 315.448 215.325 317.012C215.753 317.845 216.012 318.754 216.085 319.688C216.158 320.622 216.044 321.56 215.75 322.45C215.1 324.237 213.95 325.662 213.7 327.3C213.51 328.906 213.685 330.534 214.212 332.062C214.65 333.562 215.162 335 215.462 336.412C215.741 337.736 215.703 339.107 215.35 340.412C215.053 341.511 214.375 342.468 213.437 343.112C212.723 343.58 211.878 343.807 211.025 343.763C210.49 343.739 209.972 343.57 209.525 343.275C209.373 343.187 209.241 343.068 209.137 342.925Z" fill="#455A64"/>
<path d="M200.112 342.038C200.112 342.038 200.275 342.437 200.875 342.725C201.295 342.899 201.762 342.929 202.201 342.809C202.64 342.689 203.027 342.426 203.3 342.062C203.622 341.453 203.774 340.767 203.739 340.079C203.704 339.39 203.483 338.724 203.1 338.15C202.387 336.737 200.975 335.35 200.6 333.288C200.498 332.785 200.506 332.267 200.625 331.768C200.744 331.269 200.97 330.802 201.287 330.4C201.9 329.65 202.625 329.15 203.088 328.537C203.888 327.369 204.202 325.934 203.962 324.538C203.808 323.573 203.57 322.623 203.25 321.7C203.104 321.365 203.004 321.012 202.95 320.65C202.95 320.65 203.188 320.975 203.475 321.613C203.911 322.522 204.227 323.484 204.413 324.475C204.573 325.229 204.581 326.008 204.437 326.765C204.293 327.523 204 328.244 203.575 328.887C203.038 329.612 202.325 330.138 201.8 330.8C201.537 331.133 201.351 331.519 201.254 331.931C201.157 332.344 201.151 332.773 201.238 333.187C201.538 334.975 202.862 336.337 203.625 337.875C204.036 338.547 204.253 339.319 204.253 340.106C204.253 340.894 204.036 341.666 203.625 342.338C203.435 342.584 203.196 342.789 202.923 342.937C202.649 343.086 202.348 343.175 202.038 343.2C201.581 343.254 201.118 343.167 200.713 342.95C200.088 342.5 200.087 342.025 200.112 342.038Z" fill="#455A64"/>
<path d="M151.113 338.75C150.73 338.457 150.385 338.117 150.088 337.737C149.196 336.762 148.462 335.653 147.913 334.45C147.542 333.59 147.363 332.661 147.388 331.725C147.393 330.616 147.782 329.543 148.488 328.687C149.263 327.8 150.388 327.325 151.063 326.487C151.39 326.027 151.606 325.498 151.695 324.941C151.784 324.384 151.743 323.813 151.575 323.275C151.27 322.119 150.812 321.009 150.213 319.975C149.626 318.951 149.204 317.842 148.963 316.687C148.76 315.594 148.989 314.465 149.6 313.537C150.146 312.796 150.785 312.128 151.5 311.549C152.534 310.801 153.287 309.727 153.638 308.499C153.723 308.045 153.723 307.579 153.638 307.124C153.638 307.124 153.738 307.224 153.825 307.449C153.951 307.797 153.989 308.171 153.938 308.537C153.667 309.865 152.932 311.053 151.863 311.887C151.203 312.463 150.612 313.114 150.1 313.824C149.582 314.646 149.403 315.636 149.6 316.587C149.857 317.674 150.279 318.715 150.85 319.675C151.481 320.755 151.965 321.916 152.288 323.125C152.473 323.758 152.51 324.425 152.397 325.075C152.285 325.725 152.025 326.341 151.638 326.875C150.788 327.875 149.663 328.312 149.013 329.075C148.38 329.815 148.022 330.751 148 331.725C147.962 332.578 148.102 333.429 148.413 334.225C148.904 335.411 149.56 336.523 150.363 337.525C150.652 337.908 150.903 338.318 151.113 338.75Z" fill="#455A64"/>
<path d="M203.238 284.875C202.344 283.663 201.322 282.552 200.187 281.563C198.928 280.743 197.582 280.064 196.175 279.538C197.766 279.563 199.308 280.094 200.578 281.053C201.847 282.013 202.779 283.351 203.238 284.875Z" fill="#EC4747"/>
<path d="M205 272.913C205.075 272.913 205.487 273.363 205.825 274.325C206.257 275.606 206.297 276.987 205.938 278.29C205.579 279.593 204.839 280.759 203.812 281.638C203.012 282.301 202.412 282.501 202.375 282.438C202.337 282.376 202.837 282.013 203.487 281.313C204.353 280.419 204.98 279.323 205.312 278.124C205.644 276.925 205.67 275.662 205.387 274.45C205.214 273.95 205.084 273.436 205 272.913Z" fill="#455A64"/>
<path opacity="0.3" d="M141.563 426.675C141.563 426.675 172.625 456.175 191.088 450.825C209.55 445.475 215 431.637 215 431.637L215.45 426.637L213.6 425.387L142.5 419.712L141.563 426.675Z" fill="black"/>
<path d="M123.2 399.05L129.188 383.75L150.65 397.238L131.525 426.725C131.525 426.725 123.75 416.575 123.2 399.05Z" fill="#EB996E"/>
<path d="M147.412 356.625C157.412 351.4 170.338 349.9 170.338 349.9C174.088 357.4 185.925 358.363 193.087 353.238L199.137 349.15C199.972 349.138 200.807 349.175 201.637 349.263C208.537 349.91 215.045 352.763 220.196 357.399C225.347 362.035 228.868 368.207 230.237 375C231.43 380.33 231.939 385.791 231.75 391.25C230.962 404.912 216.825 406.15 216.825 406.15C216.825 406.15 216.1 419.637 215.137 430.55C214.93 434.351 213.662 438.018 211.477 441.136C209.292 444.253 206.278 446.696 202.775 448.187C197.824 450.664 192.498 452.307 187.012 453.05C178.449 454.39 169.687 453.61 161.495 450.776C153.303 447.943 145.931 443.144 140.025 436.8C142.175 423.8 144.225 406.962 144.075 406.2C144.051 406.118 144.051 406.032 144.075 405.95L130.063 393.512L122.113 386.837C122.113 386.837 139.613 360.962 147.388 356.713" fill="#EC4747"/>
<path d="M164.788 365C163.73 364.399 162.541 364.068 161.325 364.038C160.026 364.035 158.764 364.476 157.75 365.288C157.174 365.817 156.639 366.389 156.15 367C155.592 367.747 154.793 368.277 153.888 368.5C152.951 368.618 152.005 368.367 151.25 367.8C150.525 367.338 149.913 366.838 149.275 366.475C148.727 366.153 148.114 365.956 147.481 365.9C146.847 365.844 146.209 365.929 145.613 366.15C144.777 366.434 144.037 366.945 143.475 367.625C143.088 368.113 142.95 368.438 142.888 368.413C142.935 368.072 143.068 367.749 143.275 367.475C143.799 366.678 144.56 366.066 145.45 365.725C146.109 365.443 146.824 365.317 147.539 365.356C148.254 365.395 148.951 365.598 149.575 365.95C150.275 366.325 150.9 366.838 151.588 367.263C152.214 367.734 152.996 367.949 153.775 367.863C154.533 367.668 155.205 367.229 155.688 366.613C156.195 365.978 156.76 365.392 157.375 364.863C158.503 363.992 159.902 363.549 161.325 363.613C162.265 363.645 163.184 363.907 164 364.375C164.575 364.725 164.813 365 164.788 365Z" fill="#FAFAFA"/>
<path d="M179.025 383.75C178.217 382.838 177.195 382.142 176.05 381.725C174.835 381.309 173.515 381.309 172.3 381.725C171.592 382.048 170.907 382.42 170.25 382.837C169.481 383.364 168.554 383.611 167.625 383.537C166.698 383.349 165.882 382.807 165.35 382.025C164.812 381.362 164.387 380.687 163.9 380.137C163.484 379.658 162.966 379.277 162.385 379.022C161.803 378.767 161.172 378.644 160.537 378.662C159.655 378.671 158.792 378.917 158.037 379.375C157.512 379.712 157.275 379.975 157.225 379.938C157.175 379.9 157.387 379.587 157.9 379.162C158.856 378.444 160.044 378.105 161.235 378.212C162.427 378.318 163.536 378.861 164.35 379.738C164.887 380.325 165.325 380.987 165.837 381.625C166.288 382.258 166.955 382.703 167.712 382.875C168.501 382.917 169.282 382.702 169.937 382.262C170.622 381.821 171.346 381.445 172.1 381.138C173.452 380.676 174.925 380.715 176.25 381.25C177.136 381.574 177.927 382.116 178.55 382.825C178.925 383.338 179.05 383.675 179.025 383.75Z" fill="#FAFAFA"/>
<path d="M210.663 356.375C209.502 356.014 208.27 355.942 207.075 356.162C205.802 356.433 204.66 357.13 203.838 358.138C203.394 358.775 202.998 359.443 202.65 360.137C202.259 360.989 201.588 361.681 200.75 362.1C199.857 362.398 198.884 362.349 198.025 361.963C197.225 361.663 196.512 361.3 195.812 361.075C195.207 360.879 194.565 360.82 193.934 360.902C193.303 360.984 192.698 361.206 192.162 361.55C191.412 362.009 190.799 362.66 190.387 363.438C190.112 363.988 190.038 364.35 189.988 364.338C189.938 364.325 189.988 363.963 190.163 363.325C190.615 362.217 191.463 361.316 192.541 360.797C193.619 360.278 194.851 360.176 196 360.513C196.763 360.738 197.487 361.088 198.237 361.363C198.947 361.694 199.758 361.739 200.5 361.488C201.203 361.126 201.766 360.541 202.1 359.825C202.454 359.101 202.873 358.411 203.35 357.762C204.275 356.674 205.554 355.948 206.963 355.712C207.889 355.54 208.843 355.604 209.737 355.9C210.082 355.976 210.4 356.14 210.663 356.375Z" fill="#FAFAFA"/>
<path d="M196.062 376.875C195.441 376.186 194.678 375.641 193.825 375.275C192.905 374.917 191.89 374.886 190.95 375.187C190.392 375.402 189.853 375.661 189.337 375.962C188.71 376.35 187.97 376.514 187.237 376.425C186.515 376.249 185.888 375.801 185.487 375.175C185.1 374.637 184.8 374.1 184.45 373.662C184.153 373.281 183.774 372.97 183.342 372.754C182.909 372.537 182.434 372.421 181.95 372.412C181.026 372.418 180.124 372.701 179.363 373.225C179.363 373.225 179.488 372.95 179.888 372.637C180.651 372.104 181.586 371.873 182.511 371.991C183.435 372.109 184.282 372.567 184.887 373.275C185.287 373.75 185.612 374.287 185.975 374.775C186.284 375.276 186.77 375.642 187.337 375.8C188.487 376 189.537 374.962 190.737 374.625C191.81 374.313 192.959 374.397 193.975 374.862C195.737 375.65 196.137 376.9 196.062 376.875Z" fill="#FAFAFA"/>
<path d="M163.875 394.15C163.247 393.463 162.48 392.918 161.625 392.55C160.701 392.204 159.686 392.186 158.75 392.5C158.193 392.717 157.654 392.976 157.138 393.275C156.503 393.679 155.746 393.847 155 393.75C154.283 393.57 153.661 393.123 153.263 392.5C152.863 391.963 152.563 391.425 152.225 391C151.926 390.62 151.547 390.311 151.115 390.095C150.683 389.879 150.208 389.761 149.725 389.75C148.8 389.749 147.896 390.033 147.138 390.563C147.138 390.563 147.25 390.288 147.663 389.975C148.261 389.535 148.982 389.294 149.725 389.287C150.288 389.266 150.847 389.374 151.361 389.604C151.875 389.834 152.329 390.179 152.688 390.612C153.088 391.087 153.4 391.625 153.775 392.113C154.078 392.614 154.561 392.98 155.125 393.138C156.275 393.338 157.338 392.3 158.538 391.963C159.606 391.65 160.751 391.734 161.763 392.2C163.538 392.925 163.938 394.175 163.875 394.15Z" fill="#FAFAFA"/>
<path d="M193.962 394.55C193.157 394.082 192.254 393.808 191.325 393.75C190.339 393.714 189.369 394.014 188.575 394.6C188.125 394.982 187.707 395.4 187.325 395.85C186.856 396.418 186.208 396.81 185.488 396.962C184.742 397.017 184.004 396.785 183.425 396.312C182.875 395.937 182.425 395.525 181.95 395.225C181.545 394.964 181.087 394.797 180.609 394.734C180.132 394.671 179.646 394.715 179.188 394.863C178.314 395.17 177.552 395.732 177 396.475C177 396.475 177 396.175 177.313 395.737C177.742 395.131 178.349 394.672 179.05 394.425C179.574 394.222 180.138 394.144 180.698 394.196C181.257 394.248 181.797 394.429 182.275 394.725C182.8 395.037 183.275 395.45 183.788 395.787C184.237 396.164 184.815 396.352 185.4 396.312C186.55 396.137 187.212 394.812 188.237 394.1C189.152 393.461 190.264 393.169 191.375 393.275C191.874 393.28 192.366 393.397 192.814 393.617C193.262 393.838 193.655 394.157 193.962 394.55Z" fill="#FAFAFA"/>
<path d="M184.025 408.275C183.213 407.824 182.314 407.551 181.387 407.475C180.397 407.44 179.424 407.74 178.625 408.325C178.178 408.71 177.76 409.128 177.375 409.575C176.907 410.144 176.259 410.537 175.537 410.687C174.794 410.741 174.058 410.513 173.475 410.05C172.925 409.663 172.475 409.25 172 408.963C171.597 408.697 171.139 408.526 170.661 408.461C170.183 408.396 169.697 408.439 169.238 408.588C168.361 408.89 167.598 409.453 167.05 410.2C167.078 409.931 167.182 409.675 167.35 409.463C167.902 408.694 168.724 408.163 169.651 407.975C170.579 407.787 171.543 407.957 172.35 408.45C172.888 408.763 173.363 409.175 173.875 409.512C174.325 409.889 174.902 410.077 175.487 410.038C176.637 409.863 177.3 408.538 178.325 407.825C179.242 407.19 180.352 406.898 181.462 407C181.957 407.011 182.443 407.131 182.886 407.351C183.329 407.572 183.718 407.887 184.025 408.275Z" fill="#FAFAFA"/>
<path d="M163.037 442.35C162.398 441.671 161.623 441.134 160.763 440.775C159.832 440.447 158.818 440.447 157.888 440.775C157.334 441.003 156.799 441.275 156.288 441.587C155.667 441.981 154.93 442.149 154.2 442.062C153.472 441.891 152.84 441.442 152.438 440.812C152.038 440.287 151.725 439.75 151.375 439.325C151.075 438.947 150.695 438.639 150.263 438.423C149.832 438.207 149.358 438.089 148.875 438.075C147.948 438.088 147.048 438.389 146.3 438.937C146.3 438.937 146.413 438.65 146.813 438.325C147.412 437.886 148.132 437.641 148.875 437.625C149.434 437.592 149.992 437.688 150.508 437.905C151.023 438.121 151.483 438.453 151.85 438.875C152.25 439.35 152.575 439.888 152.95 440.363C153.264 440.859 153.756 441.217 154.325 441.362C155.475 441.55 156.513 440.5 157.713 440.112C158.781 439.791 159.929 439.862 160.95 440.312C162.675 441.125 163.1 442.363 163.037 442.35Z" fill="#FAFAFA"/>
<path d="M187.6 449.6C186.805 449.133 185.918 448.843 185 448.75C184.014 448.702 183.041 448.989 182.237 449.563C181.787 449.944 181.369 450.362 180.987 450.813C180.51 451.37 179.858 451.749 179.137 451.888C178.394 451.941 177.659 451.703 177.087 451.225C176.537 450.838 176.087 450.413 175.625 450.113C175.223 449.845 174.767 449.67 174.29 449.598C173.812 449.527 173.325 449.562 172.862 449.7C171.987 449.997 171.22 450.55 170.662 451.288C170.662 451.288 170.662 450.988 170.975 450.563C171.418 449.978 172.029 449.543 172.725 449.313C173.254 449.126 173.819 449.06 174.377 449.121C174.935 449.181 175.473 449.366 175.95 449.663C176.475 449.988 176.95 450.4 177.45 450.75C177.9 451.128 178.475 451.324 179.062 451.3C180.212 451.125 180.9 449.825 181.925 449.125C182.851 448.503 183.965 448.224 185.075 448.338C185.562 448.352 186.04 448.473 186.476 448.691C186.912 448.909 187.296 449.219 187.6 449.6Z" fill="#FAFAFA"/>
<path d="M106.65 346.25C107.4 347.137 134.888 383.887 134.888 383.887L131.025 386.087L102.812 349.837L106.65 346.25Z" fill="#263238"/>
<path d="M213.913 372.5C213.913 372.5 188.138 416.963 186.413 417.775C182.975 419.388 143.425 385.2 139.65 381.937C139.137 381.237 138.062 379.775 135.9 376.862C135.9 376.862 132.787 362.575 129.45 363.675C126.112 364.775 131.275 370.937 129.112 376.362C126.95 381.787 117.012 368.862 116.612 367.687L114.112 364.337C114.112 364.337 111.425 371.95 111.612 375.137C112.187 385.325 121.825 397.438 121.825 397.438C121.825 397.438 161 446.513 190.65 448.175C199.188 448.663 215.5 424.075 225.65 405.9C231.775 394.925 228.925 383.788 218.775 376.375L213.913 372.5Z" fill="#FFBE9D"/>
<path d="M116.45 376.875C114.758 374.621 113.488 372.081 112.7 369.375C112.8 369.375 113.538 371.062 114.575 373.125C115.613 375.188 116.538 376.825 116.45 376.875Z" fill="#EB996E"/>
<path d="M212.7 360.075C211.688 360.687 187.7 405.188 187.7 405.188L218.563 429.35C223.28 417.63 227.369 405.668 230.812 393.513C231.962 389.15 231.375 377.488 229.75 372.988C227.45 366.6 223.975 368.187 218.762 364.45L212.7 360.075Z" fill="#EC4747"/>
<g opacity="0.7">
<path opacity="0.7" d="M222.837 360.075C222.837 360.075 222.538 359.9 221.963 359.613C221.125 359.186 220.188 358.992 219.25 359.05C217.77 359.189 216.367 359.773 215.225 360.725C213.697 361.947 212.358 363.387 211.25 365C209.892 367.017 208.64 369.103 207.5 371.25C206.25 373.513 204.825 375.938 203.375 378.488C200.462 383.575 197.25 389.175 193.9 395.05C191.837 398.613 189.85 402.075 187.975 405.325L187.9 404.925L208.775 421.425L214.837 426.287L216.437 427.612C216.633 427.756 216.813 427.919 216.975 428.1C216.762 427.988 216.561 427.854 216.375 427.7L214.7 426.45L208.525 421.725L187.512 405.475L187.287 405.3L187.5 405C189.375 401.75 191.362 398.287 193.4 394.712C196.775 388.85 200 383.275 202.925 378.187L207.1 370.975C208.239 368.827 209.491 366.741 210.85 364.725C212.01 363.069 213.418 361.602 215.025 360.375C216.235 359.412 217.708 358.837 219.25 358.725C220.228 358.69 221.196 358.937 222.037 359.437C222.256 359.559 222.465 359.697 222.662 359.85C222.787 360 222.85 360.063 222.837 360.075Z" fill="black"/>
</g>
<path d="M213.625 401.8C213.007 401.107 212.243 400.561 211.388 400.2C210.468 399.844 209.455 399.808 208.513 400.1C207.955 400.319 207.416 400.582 206.9 400.887C206.271 401.27 205.532 401.433 204.8 401.35C204.077 401.174 203.451 400.726 203.05 400.1C202.663 399.562 202.363 399.025 202.013 398.587C201.716 398.206 201.337 397.895 200.904 397.679C200.472 397.462 199.996 397.346 199.512 397.337C198.588 397.343 197.687 397.626 196.925 398.15C196.925 398.15 197.05 397.875 197.45 397.55C198.059 397.124 198.782 396.889 199.525 396.875C200.086 396.853 200.644 396.962 201.155 397.192C201.667 397.421 202.119 397.767 202.475 398.2C202.875 398.675 203.2 399.212 203.563 399.7C203.875 400.198 204.36 400.563 204.925 400.725C206.075 400.925 207.125 399.887 208.325 399.55C209.396 399.234 210.545 399.314 211.563 399.775C213.3 400.562 213.75 401.812 213.625 401.8Z" fill="#FAFAFA"/>
<path d="M227.725 396.05C227.327 395.204 226.736 394.464 226 393.887C225.209 393.303 224.246 392.999 223.262 393.025C222.668 393.094 222.08 393.202 221.5 393.35C220.79 393.55 220.033 393.506 219.35 393.225C218.702 392.852 218.222 392.243 218.013 391.525C217.788 390.9 217.638 390.275 217.425 389.8C217.24 389.353 216.957 388.953 216.599 388.629C216.24 388.305 215.813 388.064 215.35 387.925C214.458 387.681 213.512 387.711 212.637 388.013C212.637 388.013 212.825 387.775 213.3 387.588C213.996 387.323 214.758 387.288 215.475 387.487C216.023 387.618 216.534 387.873 216.968 388.233C217.401 388.593 217.746 389.048 217.975 389.562C218.225 390.125 218.387 390.725 218.612 391.3C218.773 391.863 219.145 392.342 219.65 392.637C220.7 393.15 221.987 392.438 223.237 392.425C224.352 392.424 225.431 392.813 226.287 393.525C226.701 393.811 227.045 394.186 227.294 394.624C227.543 395.061 227.69 395.548 227.725 396.05Z" fill="#FAFAFA"/>
<path d="M228.45 377.65C228.045 376.812 227.456 376.077 226.725 375.5C225.937 374.91 224.971 374.606 223.988 374.637C223.392 374.694 222.802 374.803 222.225 374.963C221.514 375.164 220.755 375.116 220.075 374.825C219.43 374.454 218.951 373.85 218.738 373.138C218.513 372.513 218.363 371.887 218.15 371.4C217.96 370.956 217.677 370.558 217.318 370.235C216.96 369.911 216.536 369.669 216.075 369.525C215.183 369.281 214.237 369.311 213.363 369.613C213.363 369.613 213.55 369.388 214.025 369.188C214.722 368.929 215.482 368.894 216.2 369.087C216.746 369.224 217.254 369.481 217.686 369.84C218.119 370.199 218.466 370.651 218.7 371.162C218.95 371.725 219.113 372.338 219.338 372.9C219.498 373.466 219.869 373.949 220.375 374.25C221.425 374.75 222.713 374.038 223.963 374.038C225.079 374.024 226.162 374.415 227.013 375.137C227.424 375.423 227.767 375.796 228.015 376.231C228.264 376.666 228.413 377.151 228.45 377.65Z" fill="#FAFAFA"/>
<path d="M221.625 420C221.215 419.165 220.626 418.431 219.9 417.85C219.108 417.258 218.138 416.954 217.15 416.988C216.558 417.044 215.973 417.153 215.4 417.313C214.69 417.512 213.933 417.468 213.25 417.188C212.607 416.809 212.129 416.202 211.913 415.488C211.675 414.863 211.538 414.238 211.313 413.75C211.126 413.306 210.844 412.909 210.488 412.585C210.132 412.261 209.709 412.019 209.25 411.875C208.358 411.623 207.409 411.657 206.537 411.975C206.537 411.975 206.725 411.738 207.2 411.538C208.083 411.225 209.052 411.254 209.915 411.619C210.778 411.985 211.473 412.66 211.863 413.513C212.125 414.075 212.287 414.688 212.512 415.25C212.672 415.813 213.038 416.295 213.538 416.6C214.6 417.1 215.888 416.387 217.138 416.387C218.254 416.374 219.337 416.765 220.188 417.487C220.599 417.773 220.942 418.146 221.19 418.581C221.439 419.016 221.588 419.501 221.625 420Z" fill="#FAFAFA"/>
</svg>
