<svg width="30" height="30" viewBox="0 0 30 30" fill="none" xmlns="http://www.w3.org/2000/svg">
<path d="M15 0C6.71578 0 0 6.71578 0 15C0 23.2847 6.71578 30 15 30C23.2847 30 30 23.2847 30 15C30 6.71578 23.2847 0 15 0ZM15 28.1545C7.76297 28.1545 1.875 22.237 1.875 14.9999C1.875 7.76291 7.76297 1.87494 15 1.87494C22.237 1.87494 28.125 7.76294 28.125 14.9999C28.125 22.2369 22.237 28.1545 15 28.1545ZM20.303 9.69703C19.9369 9.33094 19.3434 9.33094 18.9773 9.69703L15 13.6744L11.0227 9.69703C10.6566 9.33094 10.0631 9.33094 9.69656 9.69703C9.33047 10.0631 9.33047 10.6566 9.69656 11.0227L13.6739 15L9.69656 18.9773C9.33047 19.343 9.33047 19.9374 9.69656 20.303C10.0627 20.6691 10.6561 20.6691 11.0227 20.303L15 16.3257L18.9773 20.303C19.3434 20.6691 19.9369 20.6691 20.303 20.303C20.6691 19.9374 20.6691 19.343 20.303 18.9773L16.3256 15L20.303 11.0227C20.6695 10.6561 20.6695 10.0627 20.303 9.69703Z" fill="white"/>
</svg>
