<svg width="50" height="50" viewBox="0 0 50 50" fill="none" xmlns="http://www.w3.org/2000/svg">
<path d="M25 50C38.8071 50 50 38.8071 50 25C50 11.1929 38.8071 0 25 0C11.1929 0 0 11.1929 0 25C0 38.8071 11.1929 50 25 50Z" fill="#EC4747" fill-opacity="0.65"/>
<path d="M49.2813 30.9691C47.0511 40.0716 39.8382 47.2171 30.6977 49.3477L9.66612 28.3162L12.7935 23.0593L29.062 10.7499L49.2813 30.9691Z" fill="#EC4747" fill-opacity="0.69"/>
<path d="M12.2577 10.1319H28.0534C28.677 10.1319 29.1873 10.6416 29.1873 11.2658V21.7154C29.1873 22.3389 28.677 22.8493 28.0534 22.8493H13.8442L9.66612 28.3162L12.0117 22.8221C11.5051 22.7089 11.1238 22.2552 11.1238 21.7154V11.2658C11.1238 10.6417 11.6341 10.1319 12.2577 10.1319Z" fill="#FAD55C"/>
<path d="M28.5605 10.2522C28.9446 10.4344 29.1872 10.7598 29.1872 11.2114V21.6616C29.1872 22.2851 28.6769 22.8493 28.0533 22.8493H13.8442L9.66612 28.3162L13.7848 22.1958H27.4859C28.1094 22.1958 28.6198 21.686 28.6198 21.0619V10.6123C28.6198 10.4616 28.6144 10.3838 28.5605 10.2522Z" fill="#E3C04D"/>
<path d="M37.7424 21.6844H21.9466C21.3231 21.6844 20.8127 22.1942 20.8127 22.8183V33.268C20.8127 33.8915 21.3231 34.4019 21.9466 34.4019H36.1559L40.3339 39.8688L37.9883 34.3747C38.4949 34.2615 38.8762 33.8078 38.8762 33.2681V22.8183C38.8763 22.1942 38.3665 21.6844 37.7424 21.6844Z" fill="#88EB92"/>
<path d="M21.464 21.7388C21.0799 21.9206 20.8127 22.3123 20.8127 22.7638V33.2679C20.8127 33.8914 21.3231 34.4018 21.9466 34.4018H36.1559L40.3339 39.8687L36.7239 33.8027H22.5141C21.6305 33.8027 21.3808 33.4513 21.3808 32.6144V22.1648C21.3808 22.0141 21.4102 21.8705 21.464 21.7388Z" fill="#73D17C"/>
<path d="M26.043 27.0713C26.043 26.3384 25.4488 25.7444 24.716 25.7444C23.9831 25.7444 23.3885 26.3385 23.3885 27.0713C23.3885 28.839 25.4016 29.6301 26.0431 30.7444C26.6846 29.6301 28.6971 28.839 28.6971 27.0713C28.6971 26.3384 28.103 25.7444 27.37 25.7444C26.6371 25.7444 26.043 26.3385 26.043 27.0713Z" fill="#FF8C8A"/>
<path d="M24.1567 15.329C24.1567 14.5961 23.5621 14.002 22.8298 14.002C22.0963 14.002 21.5022 14.5962 21.5022 15.329C21.5022 17.0967 23.5153 17.8878 24.1568 19.0021C24.7983 17.8878 26.8109 17.0967 26.8109 15.329C26.8109 14.5961 26.2167 14.002 25.4839 14.002C24.7509 14.0019 24.1567 14.5961 24.1567 15.329Z" fill="#FF8C8A"/>
<path d="M23.9858 18.7507C24.0495 18.8328 24.1071 18.9166 24.1566 19.0021C24.7981 17.8878 26.8107 17.0967 26.8107 15.329C26.8107 14.5961 26.2165 14.002 25.4837 14.002C25.4255 14.002 25.3688 14.0058 25.3129 14.0129C25.9652 14.0966 26.4691 14.6538 26.4691 15.329C26.4691 16.9606 24.7541 17.7605 23.9858 18.7507Z" fill="#FA7876"/>
<path d="M24.1578 15.2653C24.0751 14.3305 23.3254 14.0019 22.8297 14.0019C22.7715 14.0019 22.7143 14.0057 22.6589 14.0128C23.3106 14.0966 23.9875 15.2419 23.9875 15.9165C23.9875 15.6799 24.0495 15.4579 24.1578 15.2653Z" fill="#FA7876"/>
<path d="M20.0103 14.706H13.2962V15.2468H20.0103V14.706Z" fill="white"/>
<path d="M20.0103 16.2316H13.2962V16.7724H20.0103V16.2316Z" fill="white"/>
<path d="M20.0103 17.7572H15.5613V18.2981H20.0103V17.7572Z" fill="white"/>
<path d="M29.7086 26.4484H36.4225V26.9892H29.7086V26.4484Z" fill="white"/>
<path d="M29.7086 27.9739H36.4225V28.5148H29.7086V27.9739Z" fill="white"/>
<path d="M29.7086 29.4995H34.1574V30.0398H29.7086V29.4995Z" fill="white"/>
</svg>
