<svg width="34" height="34" viewBox="0 0 34 34" fill="none" xmlns="http://www.w3.org/2000/svg">
<path d="M32.5353 0.243164H1.46466C0.790069 0.243164 0.243164 0.789906 0.243164 1.46466V32.5352C0.243164 33.2029 0.787952 33.7567 1.46466 33.7567H11.1187H32.5353C33.1985 33.7567 33.7568 33.2163 33.7568 32.5352V1.46466C33.7568 0.790069 33.2099 0.243164 32.5353 0.243164ZM10.4197 31.3034C10.4184 31.3055 10.4168 31.3086 10.4137 31.3138H3.5803L8.32899 23.0891L11.7456 29.0068C10.6594 30.8883 10.4511 31.2488 10.4197 31.3034ZM13.2345 31.3138L14.2138 29.6176C14.214 29.6173 14.2142 29.6169 14.2143 29.6166L21.827 16.4311L30.4197 31.3138H13.2345ZM31.3138 27.9765L22.8849 13.3772C22.6666 12.9993 22.2635 12.7664 21.827 12.7664C21.3906 12.7664 20.9875 12.9993 20.7692 13.3772L13.156 26.5637L9.38681 20.0352C9.16857 19.6573 8.76548 19.4244 8.32899 19.4244C7.89251 19.4244 7.48942 19.6573 7.27118 20.0352L2.68632 27.9765V2.68616H31.3138V27.9765Z" fill="#919191"/>
<path d="M10.4155 31.3112C10.4144 31.3128 10.4147 31.3128 10.4155 31.3112V31.3112Z" fill="#919191"/>
<path d="M10.415 31.3112C10.4157 31.3101 10.417 31.3078 10.4194 31.3036C10.425 31.294 10.4173 31.3073 10.415 31.3112Z" fill="#919191"/>
<path d="M15.0977 15.3681C17.2571 15.3681 19.014 13.6112 19.014 11.4516C19.014 9.29203 17.2571 7.53519 15.0977 7.53519C12.9382 7.53519 11.1814 9.29203 11.1814 11.4516C11.1814 13.6112 12.9381 15.3681 15.0977 15.3681ZM15.0977 9.97834C15.9101 9.97834 16.571 10.6394 16.571 11.4518C16.571 12.2642 15.9101 12.9252 15.0977 12.9252C14.2853 12.9252 13.6244 12.2642 13.6244 11.4518C13.6242 10.6393 14.2851 9.97834 15.0977 9.97834Z" fill="#919191"/>
</svg>
