<svg width="50" height="50" viewBox="0 0 50 50" fill="none" xmlns="http://www.w3.org/2000/svg">
<g clip-path="url(#clip0_8_454)">
<path d="M47.7616 37.4046L40.4461 30.0891C41.5031 27.5448 42.0527 24.8097 42.0527 22.026C42.0527 10.4324 32.6203 1 21.026 1C9.4324 1 0 10.4324 0 22.026C0 33.6203 9.4324 43.0527 21.026 43.0527C24.112 43.0527 27.1137 42.3866 29.8666 41.1059L36.9642 48.2042C38.4071 49.6471 40.3239 50.4411 42.3643 50.4411C44.4047 50.4411 46.323 49.6464 47.7652 48.2027C49.206 46.7626 50 44.8451 50 42.8047C49.9993 40.7657 49.2053 38.8475 47.7616 37.4046ZM44.7306 45.1725C44.0774 45.8264 43.2205 46.153 42.3636 46.153C41.5067 46.153 40.6505 45.8264 39.9959 45.1725L30.587 35.7622C27.8755 37.6533 24.5816 38.7646 21.026 38.7646C11.7816 38.7646 4.2881 31.2704 4.2881 22.026C4.2881 12.7816 11.7816 5.2881 21.026 5.2881C30.2704 5.2881 37.7646 12.7816 37.7646 22.026C37.7646 25.2921 36.8255 28.3381 35.2075 30.9152L44.7306 40.4384C46.0385 41.7456 46.0385 43.8653 44.7306 45.1725Z" fill="white"/>
<path d="M21.0259 10.0551C14.4258 10.0551 9.05566 15.4252 9.05566 22.026C9.05566 28.6268 14.4258 33.997 21.0259 33.997C27.6267 33.997 32.9969 28.6268 32.9969 22.026C32.9969 15.4252 27.6267 10.0551 21.0259 10.0551ZM21.0259 29.7089C16.79 29.7089 13.3438 26.2627 13.3438 22.026C13.3438 17.7894 16.79 14.3432 21.0259 14.3432C25.2626 14.3432 28.7088 17.7894 28.7088 22.026C28.7088 26.2627 25.2626 29.7089 21.0259 29.7089Z" fill="white"/>
</g>
<defs>
<clipPath id="clip0_8_454">
<rect width="50" height="50" fill="white"/>
</clipPath>
</defs>
</svg>
