<svg width="35" height="35" viewBox="0 0 35 35" fill="none" xmlns="http://www.w3.org/2000/svg">
<path d="M33.0809 14.5375L4.5778 1.76599C2.1157 0.662737 -0.540399 2.87265 0.0955478 5.49389L1.57163 11.5779C1.78101 12.4408 2.34293 13.1886 3.11341 13.6297L8.83405 16.9051C9.29363 17.1683 9.29466 17.8311 8.83405 18.0949L3.11347 21.3703C2.343 21.8114 1.78108 22.5593 1.5717 23.4221L0.0955478 29.5061C-0.539032 32.1213 2.11256 34.3385 4.5778 33.234L33.081 20.4624C35.6414 19.3152 35.6379 15.6832 33.0809 14.5375ZM24.5593 18.6684L14.475 23.187C13.8297 23.476 13.0722 23.1876 12.783 22.542C12.4937 21.8967 12.7826 21.139 13.4279 20.85L20.9043 17.4999L13.4279 14.1499C12.7826 13.8607 12.4937 13.1032 12.783 12.4579C13.0721 11.8126 13.8295 11.5237 14.475 11.8129L24.5593 16.3316C25.5661 16.7825 25.5668 18.217 24.5593 18.6684Z" fill="#EC4747"/>
</svg>
