<svg width="65" height="65" viewBox="0 0 65 65" fill="none" xmlns="http://www.w3.org/2000/svg">
<path d="M32.4998 0C14.5795 0 0 14.5792 0 32.4998C0 50.4205 14.5795 65 32.4998 65C50.4201 65 64.9997 50.4205 64.9997 32.4998C64.9997 14.5792 50.4205 0 32.4998 0ZM51.1618 27.0103L30.7438 47.4283C29.8756 48.2965 28.7216 48.7743 27.4939 48.7743C26.2663 48.7743 25.1122 48.2965 24.2441 47.4283L13.8379 37.0221C12.9697 36.154 12.4915 34.9999 12.4915 33.7722C12.4915 32.5443 12.9697 31.3902 13.8379 30.522C14.7057 29.6539 15.8597 29.1757 17.0877 29.1757C18.3154 29.1757 19.4698 29.6539 20.3376 30.5224L27.4936 37.678L44.6614 20.5102C45.5295 19.6421 46.6836 19.1642 47.9112 19.1642C49.1389 19.1642 50.293 19.6421 51.1611 20.5102C52.9538 22.3029 52.9538 25.2184 51.1618 27.0103Z" fill="white"/>
</svg>
