<svg width="43" height="32" viewBox="0 0 43 32" fill="none" xmlns="http://www.w3.org/2000/svg">
<path d="M6.3751 0.821442C3.16987 0.821442 0.571533 3.4198 0.571533 6.62501V25.375C0.571533 28.5802 3.16987 31.1786 6.3751 31.1786H25.1292C28.3344 31.1786 30.9328 28.5802 30.9328 25.375V22.5548L39.0419 28.1114C40.5231 29.1264 42.5356 28.0657 42.5356 26.27V5.72933C42.5356 3.93391 40.5237 2.87319 39.0422 3.88766L30.9328 9.44144V6.62501C30.9328 3.4198 28.3344 0.821442 25.1292 0.821442H6.3751ZM30.9328 19.3079V12.6879L39.8571 6.57614V25.423L30.9328 19.3079ZM28.2542 6.62501V25.375C28.2542 27.1009 26.8549 28.5 25.1292 28.5H6.3751C4.64921 28.5 3.2501 27.1009 3.2501 25.375V6.62501C3.2501 4.89912 4.64921 3.50001 6.3751 3.50001H25.1292C26.8551 3.50001 28.2542 4.89912 28.2542 6.62501Z" fill="#909090"/>
</svg>
